<svg width="182" height="200" viewBox="0 0 182 200" fill="none" xmlns="http://www.w3.org/2000/svg">
<path d="M140.52 56.8953C140.52 57.1953 140.219 57.3953 139.919 57.3953C139.519 57.3953 139.319 56.9953 139.319 56.6953C139.419 56.3953 139.72 56.1953 140.02 56.1953C140.32 56.1953 140.62 56.5953 140.52 56.8953Z" fill="white"/>
<path d="M181.02 74.2953C181.02 79.7953 180.319 85.1953 178.919 90.2953C171.719 118.595 145.92 139.795 115.52 139.795C79.5195 139.795 50.0195 110.195 50.0195 74.2953C50.0195 64.4953 52.1193 54.8953 56.3193 46.1953L94.0195 64.0953L115.52 74.2953L125.22 70.8953L130.02 69.2953L159.319 59.2953C159.386 59.2286 159.853 59.062 160.72 58.7953L177.419 53.0953C178.619 56.4953 179.52 59.962 180.12 63.4953C180.72 67.0286 181.02 70.6286 181.02 74.2953Z" fill="#36174D"/>
<path d="M27.6196 74.2953C27.6196 68.6953 28.3197 63.2953 29.7197 58.1953C36.9197 29.8953 62.7196 8.79529 93.1196 8.79529C129.12 8.79529 158.62 38.2953 158.62 74.2953C158.62 83.9953 150.82 88.7953 146.62 97.5953L114.62 84.3953L93.1196 74.2953L83.4194 77.5953L78.6196 79.1953L49.3193 89.2953C49.2527 89.2953 48.7861 89.4286 47.9194 89.6953L31.2197 95.4953C30.0197 92.0286 29.1195 88.5286 28.5195 84.9953C27.9195 81.462 27.6196 77.8953 27.6196 74.2953Z" fill="#F5F5FA"/>
<path d="M154.919 78.8953C154.919 84.3953 154.219 89.7953 152.919 94.8953C145.719 123.195 119.819 144.395 89.4194 144.395C53.5194 144.395 23.9194 114.795 23.9194 78.8953C23.9194 69.0953 26.1193 59.4953 30.3193 50.7953L68.0195 68.6953L89.4194 78.8953L99.2197 75.4953L103.919 73.8953L133.319 63.8953C133.386 63.8286 133.853 63.6619 134.72 63.3953L151.419 57.6953C152.619 61.0953 153.486 64.5619 154.02 68.0953C154.62 71.6286 154.919 75.2286 154.919 78.8953Z" fill="#19C5FF"/>
<path d="M134.72 62.4952C134.52 63.8286 134.286 65.1619 134.02 66.4952C133.42 69.4952 132.42 72.4952 131.22 75.2952C130.887 75.9619 130.553 76.6286 130.22 77.2952C129.887 78.0286 129.52 78.7285 129.12 79.3952C128.72 80.0619 128.32 80.7285 127.92 81.3952C127.52 81.8952 127.02 82.3952 126.42 82.4952C125.62 82.6952 125.42 81.4952 126.22 81.2952C126.52 81.2952 126.719 80.9952 126.819 80.7952C127.086 80.4619 127.286 80.1286 127.42 79.7952C127.886 79.1286 128.286 78.4286 128.62 77.6953C128.753 77.5619 128.853 77.3953 128.92 77.1953C129.253 76.5953 129.553 75.9952 129.819 75.3952C131.419 71.7952 132.62 67.9952 133.22 64.0952C133.287 63.6952 133.353 63.2952 133.42 62.8952L134.72 62.4952Z" fill="white"/>
<path d="M108.62 65.4953L87.5195 3.49533C95.8195 0.695328 104.619 -0.50466 113.319 0.19534C140.919 2.09534 164.419 21.3953 171.819 48.0953L108.62 65.4953Z" fill="#F66957"/>
<path d="M102.319 79.0953C98.1195 75.0953 96.1199 72.6953 97.2199 69.6953C98.2199 66.5953 101.119 65.3952 104.319 65.3952C107.519 65.3952 106.12 59.7953 113.42 55.1953C121.92 49.7953 133.819 54.7953 133.319 63.1953C132.919 69.0953 130.62 75.9953 126.12 80.1953C121.52 84.3953 106.519 83.1953 102.319 79.0953Z" fill="#36174D"/>
<path d="M112.919 56.4952C111.519 57.4952 110.219 58.6952 109.319 60.0952C108.853 60.6952 108.486 61.3619 108.22 62.0952C107.92 62.6952 107.719 63.3952 107.419 63.9952C107.019 64.5952 106.62 65.0952 106.02 65.3952C105.42 65.7952 104.619 65.8952 103.819 65.9952C102.319 66.1952 100.619 66.5952 99.3193 67.4952C98.2193 68.3952 97.4195 69.6952 97.5195 71.0952C97.6195 71.6952 96.7196 71.7952 96.6196 71.1952C96.4196 69.4952 97.3196 67.8952 98.6196 66.8952C99.9196 65.8952 101.62 65.3952 103.22 65.1952C103.92 64.9952 104.92 64.9952 105.62 64.5952C106.22 64.2952 106.519 63.6952 106.819 63.0952C107.119 62.3952 107.32 61.6952 107.72 60.9952C108.053 60.3286 108.453 59.6619 108.919 58.9952C109.819 57.7952 111.019 56.6952 112.319 55.7952C112.819 55.4952 113.419 56.1952 112.919 56.4952Z" fill="white"/>
<path d="M151.419 59.2953C158.047 59.2953 163.419 53.9227 163.419 47.2953C163.419 40.6679 158.047 35.2953 151.419 35.2953C144.792 35.2953 139.419 40.6679 139.419 47.2953C139.419 53.9227 144.792 59.2953 151.419 59.2953Z" fill="#36174D"/>
<path d="M40.6196 52.7953C40.6196 53.7953 40.1197 54.8953 39.2197 55.4953C38.7197 55.7953 38.1195 55.8953 37.5195 55.7953C36.8195 55.5953 36.3193 54.9953 35.8193 54.6953C34.6193 53.8953 33.2193 53.4953 31.8193 53.4953C31.086 53.4287 30.3529 53.4287 29.6196 53.4953C28.9196 53.5953 28.2195 53.7953 27.5195 53.8953C26.1195 54.0953 24.9195 53.4953 24.5195 52.1953C24.3195 51.3953 24.5195 50.6953 25.0195 50.0953C25.2195 49.3953 26.1197 49.1953 26.7197 48.9953C27.5197 48.7953 28.353 48.662 29.2197 48.5953C31.0197 48.4953 32.7194 48.7953 34.4194 49.0953C35.2194 49.2953 36.0193 49.4953 36.8193 49.6953C37.4193 49.7953 38.1197 49.9953 38.7197 50.2953C39.7197 50.6953 40.5196 51.5953 40.6196 52.7953Z" fill="#F76D6D"/>
<path d="M38.8194 53.2953C39.0194 53.562 39.2195 53.7953 39.4195 53.9953C39.6195 54.3953 39.1195 54.7953 38.9195 54.3953C38.5195 53.6953 37.8197 53.2953 37.2197 52.8953C36.5197 52.3953 35.8195 51.9953 35.0195 51.5953C34.2195 51.2953 33.4196 50.9953 32.6196 51.0953C31.8196 51.0953 31.0197 51.3953 30.2197 51.6953C28.9197 52.1953 27.4196 52.7953 26.1196 52.0953C25.1196 51.4953 24.5195 50.3953 25.0195 49.2953C25.5195 48.1953 26.7194 47.5953 27.8194 47.1953C28.9194 46.7953 30.1194 46.6953 31.3194 46.6953C33.7194 46.6953 36.1196 47.5953 38.1196 49.0953C38.9196 49.6953 40.2197 50.6953 40.2197 51.8953C40.2197 52.5953 39.5194 53.3953 38.8194 53.2953Z" fill="#F76D6D"/>
<path d="M50.6197 60.9953C49.7197 62.5953 49.8195 63.3953 47.4195 63.0953C45.8195 62.7953 39.6195 64.0953 35.4195 61.9953C34.5528 61.5286 33.5863 60.4286 32.5196 58.6953C36.2529 56.0286 38.2195 53.462 38.4195 50.9953C38.6195 49.0953 34.8195 48.8953 32.9195 50.0953C30.7195 51.4953 27.8198 48.7953 29.2198 47.1953C30.5198 45.6953 32.4194 44.9953 34.3194 44.6953C35.3194 44.4953 36.4195 44.2953 37.4195 44.2953C38.6195 44.3953 39.3195 45.2953 39.9195 46.1953C41.5195 48.2953 43.3194 50.0953 45.3194 51.7953C47.4194 53.3953 49.8198 53.8953 50.7198 56.5953C51.3198 58.1953 51.2197 59.7953 50.6197 60.9953Z" fill="#FFA895"/>
<path d="M164.419 75.8952C165.319 82.5952 166.72 82.7953 166.02 88.9953C165.32 95.2953 157.519 94.1953 147.319 93.6953C144.319 93.5953 141.219 93.5953 138.319 93.5953C138.119 93.5953 137.819 93.5953 136.819 93.5953C136.286 93.5953 135.753 93.5953 135.22 93.5953C135.02 93.5953 134.82 93.5953 134.62 93.5953C134.42 93.6619 134.22 93.6953 134.02 93.6953C133.686 93.6953 133.353 93.6953 133.02 93.6953C132.82 93.6953 132.619 93.6953 132.419 93.6953C132.153 93.6953 131.886 93.6953 131.62 93.6953C131.42 93.6953 131.219 93.6953 130.819 93.7953C130.486 93.7953 130.186 93.7953 129.919 93.7953C129.719 93.7953 129.553 93.7953 129.419 93.7953C129.219 93.7953 129.02 93.7952 128.62 93.8952C128.42 93.8952 128.22 93.8953 126.62 93.9953C126.42 93.9953 126.32 93.9953 125.72 93.9953L119.22 107.495L99.9194 97.4953L101.02 92.4953C99.8862 91.6286 99.1197 90.5619 98.7197 89.2953C98.1197 87.2953 99.3194 84.0953 98.9194 83.9953C76.8528 77.1953 65.8193 73.762 65.8193 73.6953L66.4194 70.9953C60.2194 68.4953 53.7196 65.2953 47.1196 63.1953C46.9196 63.1286 46.7195 63.0953 46.5195 63.0953C47.5195 60.1619 48.553 57.2953 49.6196 54.4953C49.8196 54.5619 50.0197 54.6619 50.2197 54.7953C50.6197 54.9953 51.0863 55.2286 51.6196 55.4953C54.5196 56.5953 57.6195 57.0953 60.5195 58.0953C63.7862 59.2286 67.0527 60.3619 70.3193 61.4953L109.72 74.8952L115.02 76.1953L116.12 72.9953C112.786 72.062 111.286 70.1952 111.62 67.3952C111.72 65.8952 113.42 65.0953 113.62 62.7953C113.82 60.8619 114.52 59.2953 115.72 58.0953L127.02 64.2953L120.72 77.2953C122.586 77.0286 124.853 76.9619 127.52 77.0953C128.786 77.1619 130.153 77.2953 131.62 77.4953C138.62 78.4286 145.086 79.4953 151.02 80.6953L154.52 81.4953L153.72 73.8952C152.786 68.8952 152.22 65.8286 152.02 64.6953C152.02 64.4953 151.986 64.2953 151.919 64.0953C151.819 62.8953 151.62 61.6953 151.72 60.5953C151.72 58.7953 153.353 57.1286 156.62 55.5953C156.82 54.6619 156.786 53.0286 156.52 50.6953C156.22 47.1953 155.82 43.3953 159.02 42.6953C161.02 42.2953 162.519 44.1953 163.419 45.7953C162.919 44.5953 162.52 43.1953 163.02 42.5953C163.82 41.5953 165.02 41.3953 166.02 43.5953C166.62 44.9953 167.119 48.8953 167.319 51.7953C167.519 53.5953 166.519 55.2953 164.819 56.0953L160.819 57.9953C161.019 58.8619 161.286 59.9952 161.62 61.3952C161.62 61.5952 161.653 61.7953 161.72 61.9953C161.92 62.7286 162.086 63.5286 162.22 64.3952C162.32 64.7952 162.42 65.2953 162.62 65.9953C162.62 66.1286 162.653 66.2953 162.72 66.4953C162.72 66.6953 162.753 66.8953 162.819 67.0953C163.319 69.6953 163.919 72.4953 164.319 75.2953C164.319 75.4953 164.353 75.6952 164.419 75.8952Z" fill="#FFA895"/>
<path d="M127.22 67.0952C128.766 67.0952 130.02 65.8416 130.02 64.2952C130.02 62.7488 128.766 61.4952 127.22 61.4952C125.673 61.4952 124.419 62.7488 124.419 64.2952C124.419 65.8416 125.673 67.0952 127.22 67.0952Z" fill="#FFA895"/>
<path d="M166.319 88.4952C166.219 89.5952 166.02 90.8952 165.22 91.7952C164.42 92.6952 163.419 93.1953 162.319 93.6953C157.219 95.5953 151.02 94.7952 145.72 94.6953C139.32 94.5953 133.02 93.5952 126.62 93.9952C126.486 93.9952 126.32 93.9952 126.12 93.9952C125.853 93.9952 125.486 94.4619 125.02 95.3952L119.22 107.495L99.9194 97.4952L101.02 92.4952C99.8862 91.6286 99.1197 90.5619 98.7197 89.2952C98.3197 87.9952 98.7195 86.0952 99.0195 84.9952C99.0862 84.5952 99.186 84.2952 99.3193 84.0952C99.0527 84.0285 87.886 80.5952 65.8193 73.7952C65.8193 73.7286 67.3193 69.6286 70.3193 61.4952L109.72 74.8952C109.32 75.9952 109.12 77.5952 110.22 79.0952C111.02 80.2952 112.52 81.1952 115.12 81.7952C117.62 82.3952 119.82 82.1952 121.62 81.4952C124.52 80.2952 126.42 78.3952 127.52 77.0952C128.786 77.1619 130.153 77.2952 131.62 77.4952C138.62 78.4286 145.086 79.4953 151.02 80.6953L149.319 74.6953L149.02 73.4952L149.52 73.3952L162.419 71.0952C162.819 70.9952 163.519 70.8952 163.919 70.8952C164.119 70.8952 164.819 75.5952 164.819 75.9952C165.219 77.7286 165.553 79.4952 165.819 81.2952C166.219 83.6952 166.419 86.0952 166.319 88.4952Z" fill="white"/>
<path d="M77.2198 151.295C76.8865 159.429 76.5197 165.595 76.1197 169.795C75.8197 172.495 75.5196 175.295 75.4196 177.695C75.2196 180.895 75.2197 183.495 75.6197 184.395C75.6864 184.662 75.7862 184.995 75.9196 185.395C76.4529 188.062 76.4863 192.162 76.0196 197.695L39.5196 195.695C39.453 191.295 40.0528 188.762 41.3195 188.095C42.5861 187.429 46.7198 186.962 53.7198 186.695L58.0196 183.995L59.6197 182.995L59.9196 177.695L60.4196 168.095L60.0196 152.495L76.2198 148.295L77.2198 151.295Z" fill="#FFA895"/>
<path d="M146.62 143.595C146.52 144.295 146.22 144.595 145.92 144.595H59.6197C59.3197 144.595 59.0197 143.895 59.1197 143.295C59.1197 142.595 59.4194 142.195 59.8194 142.195H146.02C146.42 142.195 146.62 142.995 146.62 143.595Z" fill="#F66957"/>
<path d="M119.22 107.495C117.153 115.095 115.586 121.929 114.519 127.995C112.219 141.195 102.719 142.495 92.0193 142.395C85.086 142.329 81.6194 142.295 81.6194 142.295L81.7195 166.095L59.0193 164.095C59.0193 161.829 59.0193 155.162 59.0193 144.095C59.0193 129.695 57.8195 125.395 62.7195 122.295C65.9862 120.295 76.9527 118.795 95.6194 117.795L99.9192 97.4952L119.22 107.495Z" fill="#36174D"/>
<path d="M50.2197 117.695C48.2197 119.895 48.1193 120.595 46.3193 123.795C45.5193 125.195 44.2197 126.395 42.7197 127.295L32.1196 91.4954C34.0196 90.5954 36.0195 90.0954 37.0195 91.4954C38.8195 93.8954 39.5197 98.6954 39.7197 101.195C39.7864 101.795 39.8528 102.295 39.9194 102.695L40.6196 103.495L41.2197 104.095L42.3193 105.195C42.386 105.129 42.6864 104.829 43.2197 104.295C44.5197 107.295 46.2195 110.195 48.0195 112.995C48.4195 113.862 48.8197 114.729 49.2197 115.595C49.5531 116.262 49.8864 116.962 50.2197 117.695Z" fill="#36174D"/>
<path d="M40.5194 128.495C39.7194 128.795 39.0193 129.095 38.4193 129.295C37.1193 129.695 35.7193 128.995 35.4193 127.695L26.8192 96.7953C26.6192 95.8953 26.9196 94.7953 27.7196 94.2953C28.4196 93.7953 29.2194 93.2953 30.0194 92.6953C32.3194 101.195 37.6194 119.095 40.5194 128.495Z" fill="#F66957"/>
<path d="M74.8193 96.4954C68.3527 102.962 62.686 107.862 57.8193 111.195C57.0193 111.795 56.2529 112.295 55.5195 112.695C55.1862 112.895 54.8529 113.095 54.5195 113.295C53.3195 113.895 52.9194 114.895 52.4194 115.395C51.5194 116.295 50.8197 117.095 50.2197 117.695C49.8864 116.962 49.5531 116.262 49.2197 115.595C48.8197 114.729 48.4195 113.862 48.0195 112.995C46.2195 110.195 44.5197 107.295 43.2197 104.295L44.6196 102.795L45.8193 101.395L46.5195 100.795C46.6529 100.595 47.1194 100.062 47.9194 99.1954L65.9194 80.0953L74.8193 96.4954Z" fill="#FFA895"/>
<path d="M99.9194 97.4953L104.319 119.595C99.8527 129.662 95.5862 134.329 91.5195 133.595C80.5195 131.595 75.7531 119.895 77.2197 98.4953C70.1531 108.562 66.6196 113.762 66.6196 114.095C66.6196 114.362 61.2194 108.462 50.4194 96.3953C53.8194 92.462 57.4527 88.3953 61.3193 84.1953C65.6193 79.5953 73.8196 70.4953 78.1196 69.4953C85.4196 67.7953 90.5195 71.7953 93.0195 82.2953C94.5529 88.762 95.486 95.1953 95.8193 101.595L99.9194 97.4953Z" fill="#36174D"/>
<path d="M128.319 64.8952C128.319 65.1952 128.119 65.3952 127.919 65.3952C127.253 65.2619 126.62 65.0952 126.02 64.8952C125.92 64.7952 125.819 64.5953 125.819 64.4953C125.819 64.2953 125.886 64.1286 126.02 63.9953C126.62 63.6619 127.219 63.2952 127.819 62.8952C128.019 62.7952 128.219 62.9953 128.319 63.1953C128.419 63.3953 128.32 63.6953 128.12 63.7953C127.853 63.9286 127.586 64.0953 127.319 64.2953C127.519 64.3619 127.753 64.3952 128.02 64.3952C128.22 64.3952 128.319 64.6952 128.319 64.8952Z" fill="#F76D6D"/>
<path d="M129.519 72.3953C130.319 73.8953 127.519 75.2953 124.819 76.6953C122.719 77.6953 121.819 83.3953 119.419 83.6953C117.219 83.9953 114.92 83.3953 114.22 81.1953C113.32 78.7953 115.919 75.8953 117.419 74.3953C118.919 72.6953 121.019 71.7953 123.019 70.7953C123.919 70.3953 124.119 69.7953 124.619 68.9953C125.119 68.1953 125.419 67.3953 126.319 66.7953C126.619 66.9953 127.019 69.1953 127.319 69.4953C127.819 69.9953 127.819 70.7953 128.319 71.2953C128.619 71.7953 129.219 71.9953 129.519 72.3953Z" fill="#36174D"/>
<path d="M42.7197 127.295C41.9864 127.762 41.2529 128.162 40.5195 128.495C37.6195 119.095 32.3195 101.195 30.0195 92.6953C30.7195 92.2953 31.4196 91.8952 32.1196 91.4952L42.7197 127.295Z" fill="white"/>
<path d="M57.8193 111.195C56.5193 112.195 55.3197 112.895 54.2197 113.495C53.3197 113.895 52.9194 114.895 52.4194 115.395C51.5194 116.295 50.8197 117.095 50.2197 117.695C49.8864 116.962 49.5531 116.262 49.2197 115.595C48.8197 114.729 48.4195 113.862 48.0195 112.995C46.2195 110.195 44.5197 107.295 43.2197 104.295L44.6196 102.795L46.5195 100.795L47.9194 99.1953C48.3861 99.7286 48.8197 100.229 49.2197 100.695L57.8193 111.195Z" fill="white"/>
<path d="M76.1196 169.795C76.053 170.195 76.0195 170.595 76.0195 170.995C75.9529 171.395 75.9194 171.762 75.9194 172.095C75.3194 177.595 75.0196 182.895 75.6196 184.395C75.6863 184.662 75.7861 184.995 75.9194 185.395C74.7194 185.195 73.5193 184.995 72.3193 184.795C69.5193 184.395 66.686 184.162 63.8193 184.095C62.3527 184.029 60.9195 183.995 59.5195 183.995C58.9862 183.995 58.4862 183.995 58.0195 183.995L59.6196 182.995L60.3193 170.195V169.095L60.4194 168.095C65.9194 168.795 71.0196 169.295 76.1196 169.795Z" fill="#F5F5FA"/>
<path d="M76.1196 195.695C76.1196 195.995 76.1195 196.595 76.0195 197.195C76.0195 198.795 74.6195 199.995 73.0195 199.895L40.3193 197.795C38.8193 197.695 37.6196 196.495 37.6196 194.995C37.6196 194.195 37.6193 193.295 37.8193 192.795L76.1196 195.695Z" fill="#E1E1E1"/>
<path d="M75.4192 177.695C75.2192 180.895 75.2194 183.495 75.6194 184.395C75.6861 184.662 75.7859 184.995 75.9192 185.395C76.3192 187.295 76.3191 190.195 76.3191 192.695C76.2191 193.795 74.1193 193.895 74.0193 194.695L39.5193 192.295C39.7193 191.695 38.2193 191.495 38.5193 190.895C39.1193 189.195 39.9195 187.495 40.7195 187.095C41.9862 186.429 46.3195 186.295 53.7195 186.695L54.4192 186.195L55.4192 185.595L57.3191 184.395L58.0193 183.995C58.2193 183.862 58.7527 183.529 59.6194 182.995L59.9192 177.695C65.1192 178.095 70.2859 178.095 75.4192 177.695Z" fill="#36174D"/>
<path d="M76.3193 192.695C76.2193 193.795 76.2196 194.795 76.1196 195.695L37.8193 192.795C38.0193 192.195 38.2195 191.495 38.5195 190.895L76.3193 192.695Z" fill="white"/>
<path d="M57.9194 188.295C57.6194 188.595 57.1197 188.495 56.7197 188.195C56.3864 187.929 56.0196 187.629 55.6196 187.295C55.2196 186.962 54.8194 186.595 54.4194 186.195L55.4194 185.595C55.6861 185.862 55.9531 186.129 56.2197 186.395C56.4864 186.529 56.7194 186.695 56.9194 186.895C57.4194 187.095 57.6193 187.095 57.8193 187.195C58.2193 187.395 58.3194 187.995 57.9194 188.295Z" fill="white"/>
<path d="M60.9194 187.395C59.6528 186.462 58.4527 185.462 57.3193 184.395L58.0195 183.995C59.3195 184.695 60.4195 185.595 61.5195 186.395C62.0195 186.895 61.4194 187.795 60.9194 187.395Z" fill="white"/>
<path d="M40.6196 103.495C40.353 104.695 40.1194 105.929 39.9194 107.195C39.8194 107.495 39.5197 107.795 39.2197 107.695C38.9197 107.695 38.6196 107.395 38.6196 106.995C39.0196 105.062 39.3864 103.129 39.7197 101.195C39.7864 101.795 39.8528 102.295 39.9194 102.695L40.6196 103.495Z" fill="white"/>
<path d="M42.4195 105.095C42.3529 106.895 42.2865 108.662 42.2198 110.395C42.2198 111.195 40.9196 111.095 41.0196 110.295C41.0863 108.229 41.1532 106.162 41.2198 104.095L42.4195 105.095Z" fill="white"/>
<path d="M124.12 61.5953C124.02 61.7953 123.72 61.8953 123.52 61.7953C122.52 61.3953 121.42 61.1953 120.22 61.2953C120.02 61.2953 119.82 61.1953 119.72 60.8953C119.72 60.6953 119.92 60.3953 120.12 60.3953C122.92 60.0953 121.219 59.7953 123.819 60.9953C124.119 61.0953 124.22 61.2953 124.12 61.5953Z" fill="#36174D"/>
<path d="M115.72 61.2953C115.52 61.4953 115.32 61.4953 113.02 61.3953C112.72 61.4953 112.52 61.4953 112.32 61.2953C112.22 61.0953 112.22 60.7953 112.42 60.5953C113.42 59.9953 114.62 59.9953 115.62 60.5953C115.82 60.6953 115.82 61.0953 115.72 61.2953Z" fill="#36174D"/>
<path d="M84.9193 87.4953C82.0527 92.0287 79.153 96.5287 76.2196 100.995C75.8196 101.695 74.8196 100.895 75.2196 100.295C78.153 95.762 81.0527 91.262 83.9193 86.7953C84.3193 86.0953 85.3193 86.7953 84.9193 87.4953Z" fill="white"/>
<path d="M98.0198 116.695L90.1199 117.995C85.5199 118.662 80.8866 119.362 76.22 120.095C71.82 120.795 67.3198 121.595 63.0198 122.995C62.3198 123.295 61.8198 122.095 62.5198 121.895C65.0198 121.095 67.4198 120.495 70.0198 119.995C74.5198 118.995 79.12 118.395 83.72 117.695C88.4533 116.962 93.1529 116.229 97.8196 115.495C98.6196 115.395 98.8198 116.595 98.0198 116.695Z" fill="white"/>
<path d="M76.0195 170.995C75.9529 171.395 75.9194 171.762 75.9194 172.095C70.6528 171.562 65.4527 170.929 60.3193 170.195V169.095C61.386 169.229 62.4529 169.362 63.5195 169.495C67.6529 170.029 71.8195 170.529 76.0195 170.995Z" fill="white"/>
<path d="M55.5195 112.695C55.1862 112.895 54.8529 113.095 54.5195 113.295C51.7862 109.229 48.886 105.262 45.8193 101.395L46.5195 100.795C47.4195 101.395 48.1197 102.295 48.7197 103.095C50.8531 105.895 52.886 108.729 54.8193 111.595C55.086 111.929 55.3195 112.295 55.5195 112.695Z" fill="#F66957"/>
<path d="M119.419 66.3952C119.019 67.1952 118.119 67.5953 117.319 67.4953C117.119 67.4953 117.02 67.3953 117.02 67.1953C117.02 66.9953 117.219 66.8952 118.919 66.0952C119.019 65.8952 119.219 65.8953 119.319 65.9953C119.519 66.0953 119.519 66.2952 119.419 66.3952Z" fill="#F76D6D"/>
<path d="M164.819 52.8953C164.819 53.2953 164.12 53.1953 164.12 52.7953C164.22 50.0953 163.82 47.3953 163.12 44.7953C163.02 44.3953 163.62 44.3953 163.72 44.6953C164.453 47.362 164.819 50.0953 164.819 52.8953Z" fill="#F76D6D"/>
<path d="M32.4193 54.4953C32.0193 54.2953 32.3195 53.7953 32.6195 53.8953C33.9195 54.3953 35.4192 53.1953 35.3192 51.7953C35.3192 51.3953 35.9193 51.2953 35.9193 51.6953C36.1193 53.4953 34.1193 55.0953 32.4193 54.4953Z" fill="#F76D6D"/>
<path d="M29.9194 60.5953C33.2331 60.5953 35.9194 57.909 35.9194 54.5953C35.9194 51.2816 33.2331 48.5953 29.9194 48.5953C26.6057 48.5953 23.9194 51.2816 23.9194 54.5953C23.9194 57.909 26.6057 60.5953 29.9194 60.5953Z" fill="#F66957"/>
<path d="M50.2197 54.7952C50.0197 55.1952 49.8531 55.5952 49.7197 55.9952C48.7864 58.3952 47.9196 60.7953 47.1196 63.1953C46.9196 63.1286 46.7195 63.0952 46.5195 63.0952C47.5195 60.1619 48.553 57.2952 49.6196 54.4952C49.8196 54.5619 50.0197 54.6619 50.2197 54.7952Z" fill="#36174D"/>
<path d="M45.8195 58.2952C45.5195 61.2952 42.2199 62.1952 39.7199 62.3952C38.9199 62.4952 38.2196 62.4952 37.4196 62.2952C36.6196 62.0952 35.9199 61.7952 35.2199 61.4952C33.6199 60.9952 32.1197 60.7952 30.5197 60.5952C29.5197 60.3952 28.1199 59.9952 28.2199 58.6952C28.3199 57.2952 29.9198 56.7952 31.1198 56.5952C32.7198 56.2952 34.3196 56.3952 35.9196 56.0952C36.7863 55.8952 37.6531 55.6619 38.5197 55.3952C38.7864 54.9952 39.1532 54.6619 39.6198 54.3952C39.5198 54.2952 39.5199 54.0952 39.7199 53.9952C41.1199 53.4952 42.6195 53.9952 43.8195 54.7952C44.9195 55.5952 45.9195 56.7952 45.8195 58.2952Z" fill="#FFA895"/>
<path d="M117.02 64.4953C117.02 66.2953 115.82 67.7953 114.22 68.0953C114.02 68.0953 113.82 68.0953 113.62 68.0953C113.22 68.0953 112.853 68.0286 112.52 67.8953C112.253 67.8286 111.986 67.6953 111.72 67.4953C110.92 66.9953 110.42 66.0953 110.22 65.0953C110.153 64.8953 110.12 64.6953 110.12 64.4953C110.12 62.4953 111.619 60.8953 113.419 60.7953C114.319 60.7953 115.12 61.0953 115.62 61.4953C115.82 61.6286 115.986 61.7953 116.12 61.9953C116.52 62.3953 116.786 62.8953 116.919 63.4953C116.986 63.8286 117.02 64.162 117.02 64.4953Z" fill="white"/>
<path d="M125.72 62.8953C125.72 64.8953 124.019 66.4953 121.919 66.4953C120.919 66.4953 120.12 66.1953 119.52 65.7953C118.52 65.0953 118.02 64.0953 118.02 62.8953C118.02 60.8953 119.719 59.1953 121.819 59.1953C122.286 59.1953 122.686 59.2619 123.02 59.3953C124.02 59.6953 124.82 60.3953 125.22 61.1953C125.486 61.662 125.653 62.2286 125.72 62.8953Z" fill="white"/>
<path d="M119.12 63.7953C119.02 63.8953 118.82 63.8953 118.72 63.7953C118.42 63.2953 117.82 62.9953 117.32 63.0953C116.82 63.0953 116.12 63.4953 116.22 64.0953C116.32 64.4953 115.62 64.5953 115.62 64.1953C115.52 63.2953 116.32 62.5953 117.12 62.4953C117.92 62.3953 118.72 62.6953 119.22 63.3953C119.22 63.5953 119.22 63.6953 119.12 63.7953Z" fill="white"/>
<path d="M161.72 61.9953C158.453 62.7953 155.22 63.6953 152.02 64.6953C152.02 64.4953 151.986 64.2953 151.919 64.0953C155.119 63.0953 158.353 62.1953 161.62 61.3953C161.62 61.5953 161.653 61.7953 161.72 61.9953Z" fill="#36174D"/>
<path d="M125.22 61.1953C124.82 61.862 124.386 62.562 123.919 63.2953C123.253 64.362 122.586 65.4286 121.919 66.4953C120.919 66.4953 120.12 66.1953 119.52 65.7953L123.02 59.3953C124.02 59.6953 124.82 60.3953 125.22 61.1953Z" fill="#E1E1E1"/>
<path d="M116.919 63.4952C116.319 64.4286 115.753 65.3286 115.22 66.1953C114.92 66.7953 114.52 67.4952 114.22 68.0952C114.02 68.0952 113.82 68.0952 113.62 68.0952C113.22 68.0952 112.853 68.0285 112.52 67.8952C113.786 65.9619 114.986 63.9952 116.12 61.9952C116.52 62.3952 116.786 62.8952 116.919 63.4952Z" fill="#E1E1E1"/>
<path d="M115.62 61.4953C114.353 63.4953 113.053 65.4953 111.72 67.4953C110.92 66.9953 110.42 66.0953 110.22 65.0953C111.22 63.6286 112.286 62.1953 113.419 60.7953C114.319 60.7953 115.12 61.0953 115.62 61.4953Z" fill="#E1E1E1"/>
<path d="M166.319 88.4953C166.219 89.5953 166.02 90.8953 165.22 91.7953C164.42 92.6953 163.419 93.1953 162.319 93.6953C157.219 95.5953 151.02 94.7953 145.72 94.6953C139.32 94.5953 133.02 93.5953 126.62 93.9953C126.486 93.9953 126.32 93.9953 126.12 93.9953C125.853 93.9953 125.486 94.4619 125.02 95.3953C124.62 94.5953 124.32 93.6953 124.12 92.7953C122.82 89.0953 122.119 85.2953 121.919 81.3953C124.519 80.2953 126.42 78.3953 127.52 77.0953C128.786 77.1619 130.153 77.2953 131.62 77.4953C138.62 78.4286 145.086 79.4953 151.02 80.6953L149.319 74.6953L149.02 73.4953L149.52 73.3953L162.419 71.0953C162.819 70.9953 163.519 70.8953 163.919 70.8953C164.119 70.8953 164.819 75.5953 164.819 75.9953C165.219 77.7286 165.553 79.4953 165.819 81.2953C166.219 83.6953 166.419 86.0953 166.319 88.4953Z" fill="#FFBB4D"/>
<path d="M110.22 79.1953C109.42 79.6953 108.62 79.9953 107.72 80.1953C106.72 80.4953 105.62 80.6952 104.62 81.0952C103.686 81.4285 102.82 81.8619 102.02 82.3952C100.886 83.1285 99.8862 83.9952 99.0195 84.9952C99.0862 84.5952 99.186 84.2952 99.3193 84.0952C99.0527 84.0285 87.886 80.5952 65.8193 73.7952C65.8193 73.7286 67.3193 69.6286 70.3193 61.4952L109.72 74.8952C109.32 75.9952 109.12 77.5952 110.22 79.0952C110.22 79.1619 110.22 79.1953 110.22 79.1953Z" fill="#FFBB4D"/>
<path d="M0.0193769 15.2953C0.0193769 14.8953 0.419182 14.5953 0.819182 14.5953C5.15251 14.7287 9.45291 14.8287 13.7196 14.8953C21.4529 15.0287 29.1525 15.1953 36.8192 15.3953C44.4859 15.5287 52.1859 15.6953 59.9193 15.8953C60.3193 15.8953 60.6194 16.2954 60.5194 16.6954C60.5194 17.1954 60.1196 17.3953 59.7196 17.3953C55.3862 17.3287 51.0858 17.2287 46.8192 17.0953C39.0858 16.962 31.3862 16.7953 23.7196 16.5953C16.0529 16.462 8.35281 16.3287 0.619475 16.1954C0.219475 16.1954 -0.0806231 15.6953 0.0193769 15.2953Z" fill="#FFBB4D"/>
<path d="M64.4193 16.7953C64.3193 16.3953 64.6194 15.8953 65.0194 15.8953C68.6194 15.762 72.1862 15.662 75.7196 15.5953C76.1196 15.5953 76.4193 16.0954 76.4193 16.4954C76.3193 16.8954 76.0194 17.1954 75.5194 17.1954C72.1194 17.1954 68.6862 17.262 65.2196 17.3953C64.8196 17.4953 64.4193 17.1953 64.4193 16.7953Z" fill="#FFBB4D"/>
<path d="M0.919434 21.3953C0.519434 21.3953 0.219727 20.9953 0.219727 20.5953C0.319727 20.0953 0.619629 19.8953 1.11963 19.8953C3.45296 19.8953 5.81973 19.8953 8.21973 19.8953C16.6864 19.9619 25.1195 20.162 33.5195 20.4953C33.9195 20.4953 34.2197 20.8953 34.2197 21.2953C34.1197 21.7953 33.7193 21.9953 33.3193 21.9953C30.9193 21.9286 28.5531 21.862 26.2197 21.7953C17.7531 21.5286 9.31943 21.3953 0.919434 21.3953Z" fill="#FFBB4D"/>
<path d="M75.8193 21.1953C76.2193 21.1953 76.6196 21.4953 76.6196 21.8953C76.7196 22.2953 76.3194 22.6953 75.9194 22.6953C73.4528 22.6953 70.9528 22.6619 68.4194 22.5953C59.4861 22.4619 50.553 22.3286 41.6196 22.1953C41.2196 22.1953 40.8193 21.8953 40.8193 21.4953C40.8193 21.0953 41.1195 20.6953 41.5195 20.6953C44.0529 20.6953 46.5529 20.7286 49.0195 20.7953L75.8193 21.1953Z" fill="#FFBB4D"/>
<path d="M16.7196 30.4953C16.6196 30.9953 16.2192 31.1953 15.8192 31.1953C11.0859 30.9953 6.3194 30.9287 1.5194 30.9953C1.1194 31.0953 0.719595 30.7953 0.719595 30.3953C0.619595 29.9953 0.919205 29.4953 1.3192 29.4953C6.25254 29.4287 11.1527 29.4953 16.0194 29.6953C16.4194 29.6953 16.7196 30.0953 16.7196 30.4953Z" fill="#FFBB4D"/>
<path d="M76.9193 32.1953C76.9193 32.5953 76.6196 33.0952 76.2196 33.0952C72.4196 32.8285 68.6192 32.6286 64.8192 32.4952C58.1526 32.1619 51.453 31.9286 44.7196 31.7952C37.9863 31.6619 31.2862 31.5952 24.6195 31.5952C24.2195 31.5952 23.8192 31.2952 23.8192 30.8952C23.7192 30.4952 24.1194 29.9952 24.5194 29.9952C28.2528 29.9952 32.0192 30.0285 35.8192 30.0952C42.5526 30.1619 49.2527 30.3285 55.9193 30.5952C62.6527 30.7952 69.3862 31.0952 76.1195 31.4952C76.5195 31.4952 76.9193 31.7953 76.9193 32.1953Z" fill="#FFBB4D"/>
</svg>
