<svg width="178" height="141" viewBox="0 0 178 141" fill="none" xmlns="http://www.w3.org/2000/svg">
<path fill-rule="evenodd" clip-rule="evenodd" d="M152.891 75.5C152.591 76.5 150.991 76 151.291 75C152.191 72.2 152.691 69.3 152.791 66.3C153.091 60.2 151.791 54.1 150.291 48.2C148.791 42.7 147.291 37.2 145.291 31.9C143.491 26.9 141.191 22 137.691 17.9C134.391 13.9 130.091 11 125.291 9.09997C120.491 7.09997 115.291 5.99997 110.091 5.49997C104.191 4.99997 98.291 5.09997 92.391 5.69997C86.191 6.29997 80.0911 7.49997 74.1911 9.19997C75.3911 10.4 76.4911 11.8 77.1911 13.3C79.5911 18.4 77.6911 24 74.4911 28.2C72.6911 30.5 70.5911 32.7 68.1911 34.3C65.9911 35.9 63.2911 37.1 60.5911 36.7C55.4911 35.9 52.0911 30.8 52.2911 25.9C52.4911 20.1 56.6911 15.4 61.4911 12.5C63.9911 11 66.7911 9.99997 69.4911 8.99997C69.8911 8.89997 70.191 8.79997 70.391 8.49997C65.891 5.99997 60.3911 6.39997 55.6911 8.49997C50.5911 10.9 46.591 15 43.391 19.5C39.991 24.1 37.2911 29.2 33.9911 34C32.3911 36.3 30.6911 38.6 28.6911 40.6C26.7911 42.6 24.5911 44.3 22.2911 45.9C17.9911 49 13.291 51.8 9.89103 56C6.69103 60 4.89108 65.1 4.69108 70.3C4.39108 80.3 10.7911 89.7 20.0911 93.2C21.0911 93.6 20.5911 95.2 19.5911 94.8C17.2911 93.9 15.0911 92.7 13.0911 91.2C8.9911 88 5.89106 83.7 4.29106 78.8C2.59106 73.7 2.69103 68 4.39103 62.9C6.09103 57.5 9.5911 53.2 14.0911 49.7C18.6911 46.2 23.7911 43.4 27.7911 39.1C36.1911 30.3 39.8911 17.8 49.6911 10.3C54.0911 6.89996 59.791 4.49997 65.391 5.19997C67.991 5.49997 70.4911 6.49997 72.5911 7.99997C74.7244 7.3333 76.8911 6.7333 79.0911 6.19997C85.4911 4.69997 91.9911 3.79997 98.4911 3.59997C109.691 3.19997 121.691 4.29996 131.391 10.3C136.191 13.3 139.891 17.4 142.691 22.2C145.591 27.1 147.391 32.6 148.991 38C152.691 49.9 156.891 63.1 152.891 75.5ZM72.2911 9.79996C67.3911 11.3 62.4911 13.2 58.6911 16.6C54.9911 20 52.391 25.6 54.891 30.4C55.891 32.5 57.691 34.2 59.891 34.8C62.391 35.6 64.9911 34.6 67.0911 33.1C69.2911 31.6 71.3911 29.6 72.9911 27.4C74.5911 25.4 75.9911 23 76.4911 20.4C77.2911 16.2 75.3911 12.4 72.2911 9.79996Z" fill="#DADEF1"/>
<path d="M85.4912 63.9999C84.4912 66.2999 81.3912 70.6999 72.1912 70.7999C65.8912 70.7999 61.2911 64.5999 60.8911 61.9999C63.1578 62.1999 65.0245 62.3999 66.4912 62.5999C66.6912 62.5999 66.8912 62.5999 67.0912 62.5999L69.7911 52.7999L81.1912 56.0999L80.3911 59.2999L79.9912 60.8999L79.2911 63.5999C82.7911 63.8999 82.2911 63.8999 84.2911 64.0999C84.6245 64.0999 85.0245 64.0666 85.4912 63.9999Z" fill="#F6B399"/>
<path d="M52.4912 33.4C53.0912 33.0666 53.7244 32.8 54.3911 32.6C53.9911 32.1 53.6911 31.5 53.7911 30.8C53.7911 30.1 54.2912 29.5 54.9912 29.2C55.7912 28.9 56.6911 29.2 57.3911 30C59.1911 27.3 61.7912 25.1 64.5912 23.4C65.7245 22.6666 66.8912 22 68.0912 21.4C68.1912 19.1 69.3912 17 71.5912 15.9C73.7912 14.8 76.5911 15.2 78.2911 17.2C80.3911 16.6 82.7912 16.3 84.6912 17.4C86.2912 18.2 87.3912 19.7 87.5912 21.3C88.3912 21.1 89.2912 21.1 90.0912 21.3C91.4912 21.7 92.5912 22.7 93.1912 24C94.5912 27.3 92.6912 30.5 90.6912 33.3C89.0912 36.4 84.6911 37.8 81.7911 39.4C77.7911 41.8 74.1912 44.8 71.1912 48.3C69.5245 50.2333 68.0578 52.3333 66.7911 54.6C66.5911 55 66.0912 55.3 65.6912 55.1C61.4912 53.4 58.0912 50.3 56.1912 46.4C54.4912 43 54.0912 39.2 54.9912 35.5C54.0912 35.5 53.0911 35.3 52.2911 34.8C52.0911 34.7 51.9912 34.3 51.9912 34C51.9912 33.7 52.1912 33.5 52.4912 33.4Z" fill="#36174D"/>
<path d="M83.8911 32.9999C91.1912 34.3999 95.9912 41.3999 94.5912 48.6999C93.1912 55.9999 86.1912 60.7999 78.8911 59.3999C71.5911 57.9999 66.7912 50.9999 68.1912 43.6999C69.5912 36.3999 76.5911 31.5999 83.8911 32.9999Z" fill="#F6B399"/>
<path d="M72.5912 27.8999C79.8912 25.2999 87.5911 27.9999 90.6911 33.7999C90.9578 34.3332 91.2245 34.8999 91.4912 35.4999C91.6245 35.8999 91.7244 36.3332 91.7911 36.7999C93.3911 43.3999 88.8911 50.5999 81.3911 53.2999C73.3911 56.0999 64.8912 52.5999 62.4912 45.5999C60.0912 38.5999 64.5912 30.6999 72.5912 27.8999Z" fill="#F6B399"/>
<path d="M66.7912 48.3C69.7912 48.8 71.6912 51.6 71.1912 54.4C70.6912 57.2 67.7912 59.1 64.8912 58.5C61.8912 57.9 59.9913 55.2 60.4913 52.4C60.9913 49.5 63.8912 47.7 66.7912 48.3Z" fill="#F6B399"/>
<path d="M61.791 52.7C63.391 51.9 65.091 51.6 66.891 51.9C67.291 51.9 67.591 52.4 67.591 52.8C67.491 53.3 67.091 53.6 66.591 53.5C66.391 53.5 66.1911 53.5 65.9911 53.5C65.1911 53.5 64.7911 53.5 64.4911 53.6C64.2911 53.6 64.091 53.6333 63.891 53.7C63.191 53.9 62.791 54 62.391 54.2C62.091 54.4 61.491 54.2 61.391 53.8C61.191 53.3 61.391 52.9 61.791 52.7Z" fill="#EE796A"/>
<path d="M86.291 42.6C87.1194 42.6 87.791 41.9284 87.791 41.1C87.791 40.2715 87.1194 39.6 86.291 39.6C85.4626 39.6 84.791 40.2715 84.791 41.1C84.791 41.9284 85.4626 42.6 86.291 42.6Z" fill="#36174D"/>
<path fill-rule="evenodd" clip-rule="evenodd" d="M90.1911 46.2999C89.1911 46.2999 88.291 46.0999 87.391 45.5999C85.991 44.9999 85.0911 43.9 84.6911 42.6C83.6911 39.5 84.991 37.1999 88.291 35.9999C89.491 35.5999 90.8911 35.7 92.0911 36.4C93.2911 37 94.1911 38.1 94.6911 39.4C95.6911 42.2 94.391 45.2 91.791 46.0999C91.2577 46.2333 90.7244 46.2999 90.1911 46.2999ZM89.791 37.4C89.4577 37.4 89.1244 37.4666 88.791 37.6C86.291 38.5 85.4911 39.9 86.1911 42.1C86.4911 43 87.1911 43.7 88.0911 44.2C89.0911 44.7 90.2911 44.7999 91.1911 44.4999C92.8911 43.8999 93.7911 41.8999 93.0911 39.9999C92.7911 38.9999 92.191 38.2999 91.291 37.7999C90.8244 37.5333 90.3244 37.4 89.791 37.4Z" fill="white"/>
<path d="M84.4912 36.2999C84.6912 35.9999 85.2912 35.8999 85.6912 36.1999C86.0912 36.4999 86.0912 36.9999 85.7912 37.3999C84.7912 38.8999 84.9912 41.0999 86.0912 42.4999C86.6912 43.2999 87.7912 43.8999 88.1912 44.8999C88.4912 45.8999 88.1912 47.1999 87.0912 47.4999C86.0912 47.8999 85.4912 46.2999 86.4912 45.9999C86.6246 45.9333 86.6579 45.7666 86.5912 45.4999C86.5912 45.0999 85.9912 44.7999 85.6912 44.4999C84.9912 43.7999 84.2912 42.9999 83.9912 42.0999C83.1912 40.1999 83.3912 37.9999 84.4912 36.2999Z" fill="#EE796A"/>
<path d="M84.3913 35.1C84.5913 34.6 85.0914 34.2 85.5914 34C86.7914 33.5 88.5914 33.2 89.0914 34.7C89.4914 36.7 86.0914 37.7 85.0914 37C84.4914 36.5 84.1913 35.8 84.3913 35.1Z" fill="#36174D"/>
<path d="M76.8911 44.2999C77.7195 44.2999 78.3911 43.6284 78.3911 42.7999C78.3911 41.9715 77.7195 41.2999 76.8911 41.2999C76.0627 41.2999 75.3911 41.9715 75.3911 42.7999C75.3911 43.6284 76.0627 44.2999 76.8911 44.2999Z" fill="#36174D"/>
<path fill-rule="evenodd" clip-rule="evenodd" d="M76.5912 48.4C76.2579 48.4 75.9245 48.3666 75.5912 48.3C72.4912 47.7 70.5912 44.7 71.1912 41.6C71.3912 40.1 72.2912 38.7 73.4912 37.9C74.6912 37 76.1912 36.6999 77.6912 36.9999C79.0912 37.1999 80.3912 38 81.1912 39.3C82.0912 40.5 82.3912 42.1 82.0912 43.6C81.5912 46.4 79.1912 48.4 76.5912 48.4ZM76.6912 38.4999C75.8912 38.4999 75.0912 38.8 74.4912 39.2C73.5912 39.9 72.9911 40.8 72.7911 41.9C72.3911 44.1 73.6911 46.2 75.8911 46.6C77.9911 47 80.0912 45.6 80.4912 43.3C80.6912 42.2 80.4911 41.1 79.7911 40.2C79.2911 39.3 78.3911 38.8 77.3911 38.6C77.1245 38.5333 76.8912 38.4999 76.6912 38.4999Z" fill="white"/>
<path d="M74.2911 34.9999C75.0911 34.7999 75.9911 34.6999 76.8911 34.8999C77.3911 34.9999 77.9912 35.2999 78.1912 35.8999C78.3912 36.3999 78.2912 36.9999 77.9912 37.3999C77.5912 38.1999 75.9912 38.2999 75.1912 38.4999C73.8912 38.6999 72.6912 38.9999 71.4912 39.2999C70.8912 39.4999 70.3912 38.6999 70.5912 38.1999C71.2912 36.7999 72.6911 35.4999 74.2911 34.9999Z" fill="#36174D"/>
<path d="M80.6912 43.2C81.1912 42.1 82.1912 41.2999 83.3912 40.9999C84.5912 40.6999 85.9912 41 86.7912 41.9C87.1912 42.4 87.2912 43 86.8912 43.3C86.6912 43.4 86.6912 42.9 85.7912 42.6C84.4912 42.2 82.7912 42.6 82.1912 43.8C81.9912 44.2 81.4913 44.5 81.0913 44.3C80.6913 44.1 80.4912 43.6 80.6912 43.2Z" fill="white"/>
<path d="M88.0913 29.4C86.6913 31.2 84.3913 32 82.2913 32.7C77.4913 34.2 72.4914 34.7 67.4914 35.2C66.7914 40.6 67.5913 46.1 69.8913 51C70.2913 51.8 69.1913 52.6 68.5913 51.9C67.0913 50.3 65.2913 49.2 63.1913 48.6C62.9913 48.6 62.7913 48.5334 62.5913 48.4C62.3913 48.3334 62.1914 48.2667 61.9914 48.2C61.4914 48.1 61.2913 47.6 61.3913 47.2C59.3913 42.5 57.5913 37.4 59.8913 32.7C60.8913 30.6 62.6913 29 64.5913 27.8C66.6913 26.4 68.8913 25.4 71.1913 24.5C75.6913 22.9 80.7913 22.6 85.2913 24.6C86.2913 25 87.4913 25.5 88.2913 26.3C89.2913 27.2 88.7913 28.6 88.0913 29.4Z" fill="#36174D"/>
<path d="M80.3912 48.6C80.3912 48.5333 83.0246 48.6333 88.2913 48.9C88.0246 50.8333 86.6246 51.8 84.0913 51.8C81.558 51.8 80.3246 50.7333 80.3912 48.6Z" fill="white"/>
<path d="M134.891 85.2999L121.191 115.7L119.091 114.3L118.091 113.7L132.791 82.7999C132.925 82.9999 133.091 83.1999 133.291 83.3999C133.425 83.5999 133.591 83.7999 133.791 83.9999C134.191 84.3999 134.558 84.8333 134.891 85.2999Z" fill="white"/>
<path d="M177.091 42.5C176.691 44.5 176.091 46.3 175.491 48.2C174.891 50.1334 174.258 52.0334 173.591 53.9C170.991 61.2334 167.958 68.4333 164.491 75.5C164.225 76.4333 163.958 77.3667 163.691 78.3C161.191 86.7 159.091 101.1 155.291 113.5C152.991 121.1 146.091 124.8 139.791 124.6C132.491 124.3 126.991 119.6 121.191 115.7C121.191 115.7 124.591 108.167 131.391 93.1C131.724 92.1 132.025 91.1 132.291 90.1C134.558 83.0334 137.024 76 139.691 69C139.691 68.6667 139.658 68.3333 139.591 68C139.324 67.7333 139.091 67.4334 138.891 67.1C137.291 65.1 136.891 62.5 136.691 60.1C136.491 57.8 136.191 55.5 135.291 53.3C134.891 52.2334 134.391 51.2334 133.791 50.3C133.191 49.3 132.391 48.5 131.791 47.5C130.591 45.8 130.691 43.7 132.491 42.4C134.191 41.2 136.491 41.2 138.291 42.1C140.291 43 141.591 44.9 142.491 46.7C142.991 47.6 143.391 48.6 143.891 49.5C144.291 46.0333 144.791 42.5333 145.391 39C145.724 37.2 146.058 35.4 146.391 33.6C146.791 31.9 146.991 30.2 147.691 28.6C148.291 27.2 149.591 26 151.291 25.8C153.091 25.6 154.491 26.6 155.091 28C155.691 29.7 155.191 31.6 154.891 33.3C154.624 35.1 154.325 36.9334 153.991 38.8C153.725 40.8 153.424 42.8 153.091 44.8C153.291 44.8667 153.525 44.9333 153.791 45C154.258 42.1334 154.724 39.2667 155.191 36.4C155.491 34.6 155.691 32.8 156.091 31C156.391 29.5 156.891 27.9 158.291 26.8C159.591 25.8 161.391 25.5 162.891 26.3C164.191 27 164.891 28.2 165.091 29.4C166.691 28.9 168.591 29.5 169.591 30.7C170.991 32.2 170.991 34.3 170.791 36.2C170.658 37.9334 170.391 39.6667 169.991 41.4C170.191 41 170.424 40.6334 170.691 40.3C171.691 38.9 173.791 37.7 175.591 38.6C177.291 39.3 177.391 41.1 177.091 42.5Z" fill="#F6B399"/>
<path d="M132.791 82.8C132.791 82.8 127.891 93.1 118.091 113.7L117.691 113.4L106.391 106L103.191 114.9C102.991 114.833 102.791 114.8 102.591 114.8C102.191 115.267 101.758 115.667 101.291 116C100.291 116.6 99.0911 116.9 97.8911 117.2C96.5578 117.467 95.2244 117.667 93.8911 117.8C91.0911 118.133 88.2912 118.333 85.4912 118.4C80.2912 118.4 75.0912 117.7 70.0912 116.5C58.3912 116.3 49.7912 115.9 38.1912 115L40.5912 105.1C40.7245 104.967 41.2245 104.067 42.0912 102.4L43.2911 100.3L14.4912 89.9C15.7912 86.8 17.1912 83.7 18.6912 80.7C22.8912 72.4 31.1912 65 39.9912 63.1C46.0912 61.7 53.1912 61.6 58.4912 61.9C59.2912 64.9 62.2911 71.9 72.2911 72.6C82.5911 73.4 86.8911 66.4 88.2911 63.7C92.6911 62.9 99.3911 61.3 105.891 61.9C116.391 63 118.791 66.7 132.791 82.8Z" fill="#F66957"/>
<path d="M99.9913 129H68.4913C66.2913 129 65.0912 127.2 65.8912 125L76.9913 93.5C77.6913 91.3 80.1912 89.5 82.3912 89.5H113.891C116.091 89.5 117.291 91.3 116.491 93.5L105.391 125C104.591 127.2 102.191 129 99.9913 129Z" fill="white"/>
<path d="M100.891 131.1H69.4914C67.1914 131.1 66.0913 129.3 66.7913 127L77.8913 95.6C78.6913 93.3 81.0913 91.5 83.2913 91.5H114.791C116.991 91.5 118.191 93.3 117.391 95.6L106.391 127C105.591 129.3 103.091 131.1 100.891 131.1Z" fill="#19C5FF"/>
<path d="M107.891 93.7H91.191C89.691 93.7 88.891 92.5 89.391 91C89.891 89.5 91.4911 88.4 92.9911 88.4H109.791C111.191 88.4 111.991 89.5 111.491 91C110.991 92.5 109.391 93.7 107.891 93.7Z" fill="#36174D"/>
<path d="M80.3913 59.3L79.9914 60.9C77.3914 60.7 74.8914 60.2 72.4914 59.1C71.4914 58.7 71.9914 57.1 72.9914 57.6C75.2914 58.6 77.8913 59.2 80.3913 59.3Z" fill="#EE796A"/>
<path d="M152.991 64.7999C152.991 65.8999 151.391 65.7999 151.391 64.6999C151.491 58.6999 146.891 53.9999 142.791 49.9999C142.091 49.1999 143.291 48.0999 144.091 48.8999C148.391 53.1999 153.091 58.1999 152.991 64.7999Z" fill="#EE796A"/>
<path d="M165.491 30.2999L161.491 48.1999C161.491 48.6999 160.891 48.8999 160.491 48.7999C159.991 48.5999 159.891 48.1999 159.991 47.6999C161.324 41.6999 162.658 35.7333 163.991 29.7999C164.091 29.2999 164.591 29.0999 164.991 29.1999C165.491 29.3999 165.591 29.7999 165.491 30.2999Z" fill="#EE796A"/>
<path d="M88.2911 63.7C86.8911 66.4 82.5911 73.4 72.2911 72.6C62.2911 71.9 59.2912 64.9 58.4912 61.9C58.7579 61.9 59.0245 61.9 59.2911 61.9C59.8245 61.9667 60.3578 62 60.8911 62C61.2911 64.6 65.8912 70.8 72.1912 70.8C81.3912 70.7 84.4912 66.3 85.4912 64C86.4912 64 87.2911 63.8 88.2911 63.7Z" fill="white"/>
<path d="M140.591 68.8999C139.724 71.6333 138.858 74.3999 137.991 77.1999C134.925 86.9333 131.825 96.6999 128.691 106.5C128.391 107.5 126.791 107 127.191 106C128.058 103.2 128.925 100.433 129.791 97.6999L139.091 68.3999C139.391 67.2999 140.991 67.8999 140.591 68.8999Z" fill="#EE796A"/>
<path d="M115.091 120C115.091 122.4 113.491 124 111.691 124.4C110.691 124.6 109.691 124.5 108.791 124.4C108.391 125.5 108.091 126.7 107.291 127.6C107.158 127.733 107.024 127.867 106.891 128C106.991 130.4 105.991 132.6 104.291 134.2C104.491 135.8 103.591 137.2 102.391 138.1C100.991 139.2 99.1912 139.5 97.5912 139.5C75.2912 140.6 46.6911 140 24.3911 140.6C13.0911 140.9 2.69121 140.5 0.491206 131.5C-1.20879 124.6 1.79118 119.6 5.09118 111.1C7.99118 103.6 10.7911 97.5999 12.3911 94.2999C12.5244 94.3666 21.9245 97.9666 40.5912 105.1L36.5912 114.5C48.1912 115.4 64.6911 116.3 76.2911 116.5C77.9911 114.8 79.6912 113.1 81.5912 111.6C84.8912 109.1 88.8912 107.2 93.0912 107.2C97.3912 107.3 102.091 110.3 103.191 114.4C103.524 114.4 103.858 114.433 104.191 114.5C105.458 114.567 106.758 114.667 108.091 114.8C108.491 114.8 108.924 114.833 109.391 114.9C110.058 114.967 110.691 115.067 111.291 115.2C113.191 115.8 114.991 117.5 115.091 120Z" fill="#F6B399"/>
<path d="M13.7913 91.6C13.3913 92.5333 12.9913 93.4666 12.5913 94.4C12.9913 93.1333 13.358 92.2 13.6913 91.6H13.7913Z" fill="#F6B399"/>
<path d="M43.2913 100.3L42.0913 102.4L40.7913 104.9C40.6579 105.033 31.258 101.533 12.5913 94.4C12.9913 93.4667 13.3913 92.5334 13.7913 91.6C13.9913 91 14.2247 90.4334 14.4913 89.9L43.2913 100.3Z" fill="white"/>
<path d="M13.7913 91.6C13.3913 92.5333 12.9913 93.4666 12.5913 94.4C12.9913 93.1333 13.358 92.2 13.6913 91.6H13.7913Z" fill="white"/>
<path d="M45.1912 94.7C43.1912 101.633 40.8579 108.4 38.1912 115C37.7912 116 36.2912 115.5 36.6912 114.5C39.2912 107.833 41.5912 101.067 43.5912 94.2C43.8912 93.2 45.4912 93.7 45.1912 94.7Z" fill="#36174D"/>
<path d="M77.3913 117.2C74.1913 117.133 70.958 117.067 67.6913 117C56.2913 116.8 44.8579 116.567 33.3913 116.3C32.3913 116.3 32.4914 114.6 33.4914 114.7C36.758 114.7 39.9913 114.733 43.1913 114.8C54.658 115.067 66.0914 115.3 77.4914 115.5C78.5914 115.5 78.4913 117.2 77.3913 117.2Z" fill="#EE796A"/>
<path d="M102.991 114.8C102.191 113 100.891 111.6 99.2912 110.6C95.8912 108.5 91.7912 108.5 88.1912 109.8C84.2912 111.1 80.9912 113.8 78.1912 116.6C77.3912 117.4 76.2912 116.1 77.0912 115.4C78.7912 113.6 80.6912 112 82.7912 110.6C86.4912 108.2 91.0912 106.7 95.5912 107.4C99.2912 108.1 102.891 110.4 104.491 114C104.891 115 103.391 115.7 102.991 114.8Z" fill="#EE796A"/>
<path d="M116.191 120.5C116.091 122.8 114.191 124.2 112.191 124.8C109.891 125.6 107.291 125 104.891 125.7C103.891 126 103.591 124.4 104.591 124.1C106.991 123.4 109.491 123.9 111.891 123.2C113.391 122.7 114.791 121.5 114.491 119.8C114.091 117.8 112.291 116.7 110.491 116.2C108.291 115.6 105.891 115.5 103.691 115.5C101.291 115.567 98.8911 115.833 96.4911 116.3C95.4911 116.6 95.0911 114.9 96.1911 114.7C99.1911 114.1 102.291 113.8 105.391 113.9C107.791 114 110.491 114.2 112.791 115.3C114.691 116.3 116.291 118.3 116.191 120.5Z" fill="#EE796A"/>
<path d="M149.991 10.1C149.991 15.6 145.491 20.2 139.891 20.2H115.691C115.491 20.4667 115.291 20.7333 115.091 21C112.758 23.8 109.824 25.2 106.291 25.2C106.291 25.2 106.958 24.2667 108.291 22.4C108.791 21.7 109.091 20.9 109.291 20.2H108.091C102.591 20.2 97.9912 15.6 97.9912 10.1C97.9912 4.5 102.591 0 108.091 0H139.891C145.491 0 149.991 4.5 149.991 10.1Z" fill="#19C5FF"/>
<path fill-rule="evenodd" clip-rule="evenodd" d="M140.691 8.90001C138.191 10.5 135.191 12.2 132.191 10.8C131.591 10.5 130.991 10 130.591 9.40001C130.291 9.10001 129.991 8.50001 129.691 8.10001C129.791 9.30001 129.291 10.6 128.691 11.7C128.091 12.8 127.191 14.2 125.791 13.9C124.291 13.6 123.891 11.9 124.291 10.6C124.491 9.90001 124.891 9.20001 125.291 8.50001C125.591 8.00001 125.991 7.50001 126.391 7.00001C126.491 6.90001 126.691 6.80001 126.491 6.70001C125.391 6.80001 124.391 7.8 123.491 8.8C123.191 10.2 122.391 11.5 121.491 12.5C120.591 13.5 119.491 14.3 118.191 14.5C116.891 14.8 115.391 14.5 114.391 13.6C113.591 12.8 113.091 11.6 113.291 10.4C113.424 9.73334 113.758 9.13334 114.291 8.60001C114.691 8.30001 115.291 8.00001 115.591 7.50001C115.591 7.40001 115.791 7.10001 115.691 7.00001C115.591 7.00001 115.191 7.10001 115.091 7.10001C114.558 7.23334 114.091 7.43334 113.691 7.70001C111.991 8.70001 110.991 11 111.591 13C111.991 14 110.291 14.4 109.991 13.3C109.291 10.8 110.391 8.00001 112.491 6.50001C113.491 5.70001 115.291 4.90001 116.491 5.60001C117.191 6.00001 117.491 6.80001 117.291 7.60001C117.191 8.30001 116.691 8.8 116.191 9.3C115.691 9.6 115.091 10 114.991 10.6C114.891 11 114.991 11.5 115.191 11.9C115.791 12.9 117.091 13.1 118.091 12.8C119.391 12.5 120.291 11.5 120.991 10.4C121.191 10.1 121.391 9.70001 121.591 9.40001C120.891 9.40001 120.191 9.30001 119.591 9.00001C118.591 8.30001 118.191 6.90001 118.891 5.90001C119.691 4.90001 121.191 4.70001 122.191 5.40001C122.691 5.70001 122.991 6.10001 123.191 6.60001C124.291 5.70001 125.591 4.80001 127.091 5.10001C127.791 5.20001 128.291 5.50001 128.791 6.00001C129.258 6.00001 129.725 6.13334 130.191 6.40001C131.291 7.00001 131.491 8.40001 132.591 9.10001C134.991 10.6 137.891 8.70001 139.891 7.40001C140.291 7.10001 140.891 7.40001 140.991 7.70001C141.291 8.20001 141.091 8.60001 140.691 8.90001ZM121.791 7.60001C121.791 7.40001 121.691 7.20001 121.491 7.00001C121.291 6.60001 120.791 6.5 120.391 6.8C120.091 7 120.091 7.20001 120.391 7.50001C120.791 7.90001 121.291 7.80001 121.791 7.60001ZM127.791 8.10001C127.191 8.50001 126.791 9.10001 126.491 9.70001C126.191 10.3 125.691 11.1 125.791 11.7C125.791 11.9 125.791 12.1 126.291 12.2C126.791 11.9 127.191 11.1 127.391 10.6C127.691 10.1 127.991 9.4 127.991 8.8C128.091 8.5 127.991 8.20001 127.791 8.10001Z" fill="white"/>
<path d="M28.6912 47.9C26.8912 50.4 23.3911 51 20.8911 49.3C18.2911 47.5 17.6912 44 19.4912 41.4C21.2912 38.9 24.7912 38.3 27.2912 40.1C29.8912 41.9 30.4912 45.4 28.6912 47.9Z" fill="#19C5FF"/>
<path d="M37.3909 29.7L34.491 45.5C34.191 47.3 32.191 48.1 30.791 47.1L19.591 39.2C18.191 38.2 18.291 36 19.791 35.1L33.791 27.2C35.591 26.2 37.6909 27.7 37.3909 29.7Z" fill="#FFBB4D"/>
<path d="M115.591 48.7C115.091 49.3 114.391 49.7 113.591 49.7C112.891 49.8 112.091 49.5 111.591 49C111.391 48.8666 111.191 48.6666 110.991 48.4C110.691 48.4 110.391 48.2 110.291 48C109.991 47.2 109.991 46.3 110.291 45.6C110.391 45.3 110.491 45.1 110.891 44.7C111.191 44.3 111.691 43.9 112.191 43.7C112.891 43.4 113.691 43.3 114.491 43.6C115.091 43.9 115.591 44.4 115.891 45C116.491 46.2 116.391 47.7 115.591 48.7Z" fill="#F66957"/>
<path fill-rule="evenodd" clip-rule="evenodd" d="M11.9912 61.6C9.79122 62.8666 7.59112 64.1333 5.39112 65.4C4.89112 65.7 4.09117 65.3 4.19117 64.7C4.59117 62.2333 4.99112 59.8 5.39112 57.4C5.49112 57 5.79117 56.6 6.19117 56.6C6.39117 56.6 6.69112 56.6 6.89112 56.7C8.62445 57.8333 10.3579 58.9666 12.0912 60.1C12.5912 60.5 12.4912 61.3 11.9912 61.6ZM6.09119 63.1C7.42453 62.3 8.75786 61.5333 10.0912 60.8C9.02453 60.0666 7.92448 59.3666 6.79114 58.7C6.59114 60.1666 6.35786 61.6333 6.09119 63.1Z" fill="#F66957"/>
<path d="M120.891 58.8C119.991 59.6 118.691 59.7 117.691 58.9C116.791 58.3 116.191 57.1 116.591 55.6C117.091 54.6 118.291 53.9 119.391 54C120.491 54.1 121.491 54.8 121.791 55.9C122.091 56.9 121.691 58.1 120.891 58.8Z" fill="#19C5FF"/>
</svg>
