<svg width="173" height="199" viewBox="0 0 173 199" fill="none" xmlns="http://www.w3.org/2000/svg">
<path d="M81.5 16.2324C126.6 16.2324 163.1 52.7324 163.1 97.7324C163.1 119.932 154.2 140.032 139.9 154.732C125.1 169.832 104.4 179.332 81.5 179.332C68.5 179.332 56.2001 176.232 45.3 170.832C18.4 157.432 0 129.732 0 97.7324C0 52.7324 36.5 16.2324 81.5 16.2324Z" fill="#DADEF1"/>
<path d="M28.6001 70.8324C35.9001 87.7324 55.5001 95.4324 72.4001 88.1324C89.3001 80.8324 97 61.2325 89.7 44.4325C89.5 43.8325 89.2335 43.2324 88.9001 42.6324C98.9668 37.5658 104.067 35.1991 104.2 35.5325C104.4 35.8325 104.5 36.1324 104.8 36.6324C104.933 36.9658 105.067 37.3325 105.2 37.7325C105.6 38.4325 105.9 39.2324 106.2 40.1324C106.3 40.4324 106.5 40.8325 106.7 41.4325C106.833 41.7658 106.933 42.0991 107 42.4325C107.1 42.8325 107.2 43.1325 107.4 43.7325C107.467 44.0658 107.567 44.3658 107.7 44.6324C109.6 51.9324 109.8 59.3325 108.5 66.4325C108.433 66.8325 108.367 67.2324 108.3 67.6324C108.233 68.0324 108.133 68.4324 108 68.8324C107.933 69.2324 107.867 69.6325 107.8 70.0325C107.667 70.3658 107.567 70.6991 107.5 71.0325C107.233 71.8991 106.967 72.7658 106.7 73.6324C106.633 73.8991 106.533 74.1658 106.4 74.4325C106 75.4991 105.567 76.5658 105.1 77.6324C105.033 77.8324 104.933 78.0325 104.8 78.2325C104.667 78.6325 104.5 79.0325 104.3 79.4325C103.9 80.1658 103.5 80.8991 103.1 81.6324C102.9 82.0324 102.7 82.3991 102.5 82.7325C98.3 90.0325 92.2001 96.2324 84.6001 100.632C83.9334 101.032 83.2999 101.399 82.7 101.732C82.2999 101.932 81.9 102.132 81.5 102.332C81.1667 102.532 80.8001 102.699 80.4001 102.832C80.0001 103.032 79.6 103.199 79.2 103.332C78.7999 103.532 78.4 103.699 78 103.832C77.6 104.032 77.2001 104.199 76.8 104.332C76.4667 104.466 76.1 104.599 75.7 104.732C51.2999 113.132 23.9 101.332 13.5 77.3324L28.6001 70.8324Z" fill="white"/>
<path d="M39.6001 11.6324C64.0001 1.13242 92.2 11.5324 104 35.0324L88.9001 42.6324C81.1001 27.0324 62.3 20.0324 46 27.0324C37.6 30.7324 31.5 37.3325 28.3 45.2325L12.9001 39.1324C17.7001 27.2324 26.9001 17.1324 39.6001 11.6324Z" fill="#36174D"/>
<path d="M39.6001 4.1325C64.0001 -6.4675 92.2 4.03252 104 27.5325L88.9001 35.1325C81.1001 19.4325 62.3 12.5325 46 19.5325C37.6 23.1325 31.5 29.8325 28.3 37.7325L12.9001 31.6325C17.7001 19.7325 26.9001 9.6325 39.6001 4.1325Z" fill="#F66957"/>
<path d="M11.7 42.7325C11.9 41.9325 12.1667 41.1325 12.5001 40.3325C12.6334 39.9325 12.7669 39.5324 12.9002 39.1324L28.3001 45.2325C25.1001 53.1325 25.0002 62.3325 28.6002 70.8325L13.5001 77.3325C8.60007 65.9325 8.30002 53.7325 11.7 42.7325Z" fill="#19C5FF"/>
<path d="M43.5001 115.032C32.5001 95.6325 31.2002 68.4324 33.1002 52.3324C36.4002 24.7324 77.9001 30.7324 89.0001 47.1324C100 63.4324 102.2 64.4325 123 57.5325C145.9 49.9325 165.7 63.3325 170 90.2325C175.6 125.732 145.2 147.532 120.2 150.432C67.3001 156.432 54.6001 134.332 43.5001 115.032Z" fill="#36174D"/>
<path d="M77.1001 46.0325L85.8 51.0325C88.4 52.6325 90.9999 54.1325 93.6999 55.5325C96.2999 56.8325 99 58.0324 101.8 58.6324C104.7 59.3324 107.7 59.3325 110.6 58.7325C113.7 58.1325 116.5 56.8325 119.5 55.8325C122.5 54.8325 125.5 53.9325 128.6 53.2325C134.5 51.9325 140.7 51.5324 146.6 52.6324C151.9 53.6324 157.1 55.8325 161.3 59.3325C165.3 62.6325 168.2 66.9325 169.9 71.7325C171.6 76.6325 172.3 81.7325 172.2 86.9325C172 91.8325 171.1 96.7325 169.4 101.432C167.7 105.932 165.2 110.132 161.9 113.732C158.8 117.132 154.9 119.832 150.4 121.132C149.333 121.466 148.233 121.699 147.1 121.832C146.2 121.932 146 120.532 146.9 120.432C151.4 119.932 155.5 117.832 158.9 114.832C162.3 111.832 165 107.832 167 103.632C169 99.3324 170.2 94.6325 170.6 89.9325C171.1 84.8325 170.8 79.7325 169.5 74.8325C168.2 70.1325 165.8 65.6325 162.4 62.0325C158.7 58.2325 153.8 55.8325 148.7 54.4325C143 53.0325 137 53.1325 131.3 54.0325C128.2 54.6325 125.2 55.3325 122.3 56.3325C119.3 57.2325 116.5 58.4325 113.5 59.3325C110.7 60.2325 107.7 60.7325 104.7 60.4325C101.9 60.2325 99.2001 59.4325 96.6001 58.3325C93.9001 57.2325 91.2999 55.8325 88.6999 54.3325C85.9999 52.7325 83.3 51.1325 80.5 49.5325C79.1 48.7325 77.7334 47.9324 76.4001 47.1324C75.6001 46.7324 76.4001 45.6325 77.1001 46.0325Z" fill="#36174D"/>
<path d="M16.9001 107.332C18.4001 105.632 20.9999 103.132 24.1999 100.532C27.7999 102.532 40.5001 108.532 58.4001 107.832C76.3001 107.032 79.8999 94.7325 77.9999 84.1325C76.7999 77.8325 73.0999 72.9325 70.1999 69.9325C75.1999 68.7325 80.6 67.8325 85.1 67.9325C90.6 68.1325 96.6001 69.8325 102.4 72.2325C110.8 75.7325 119.1 80.6325 125.5 84.1325C125.9 84.3325 126.3 84.5325 126.7 84.7325C137.8 90.4325 158.3 96.5325 150.1 116.832C144.1 131.632 130 127.332 122.2 123.532C120.7 122.732 119.4 122.033 118.4 121.433C117.667 121.033 117.1 120.666 116.7 120.332L113.4 120.832C111.1 118.332 108.2 115.433 105.1 112.733C104.967 112.599 104.833 112.466 104.7 112.332C97.1999 106.232 87.5 108.632 86.1 112.132C84.6 115.632 81.4 129.433 79.1 132.733C77.5667 134.866 71.5667 138.933 61.1 144.933L79.3 169.332C69.2 179.432 57.7999 190.332 51.1999 194.632C37.8999 203.132 20.1 195.732 18.3 186.732C16.4 177.732 11.9 149.833 11.6 134.733C11.4 119.733 11.8001 113.432 16.9001 107.332Z" fill="#FFBB4D"/>
<path d="M66.9001 54.2324C70.1668 56.2324 72.4001 58.3991 73.6001 60.7324C73.3334 63.7324 73.4 66.0324 73.8 67.6324C74.4 70.1324 76.7001 76.4324 73.6001 80.2324C70.6001 84.1324 66.1001 86.5324 60.1001 86.1324C51.9001 85.6324 49.0001 83.5324 46.6001 79.5324C45.6668 77.9324 45.2 75.2657 45.2 71.5324C49.5333 71.9991 53.7 69.7324 57.7 64.7324C61.0333 60.5991 64.1001 57.0991 66.9001 54.2324Z" fill="#FFA895"/>
<path d="M45.4001 68.1325C48.2001 68.6325 49.9999 71.3325 49.4999 74.0325C48.9999 76.8325 46.2999 78.6325 43.4999 78.1325C40.7999 77.6325 38.9999 74.9325 39.4999 72.2325C39.9999 69.4325 42.6001 67.6325 45.4001 68.1325Z" fill="#FFA895"/>
<path d="M45.4 144.832C45.6667 144.299 45.9666 143.766 46.2999 143.232C47.9999 140.532 50.2 137.932 52.4 135.632C55 132.832 57.8999 130.432 60.7999 128.032C66.6999 123.332 72.8999 119.032 78.7999 114.332C81.6999 111.932 84.5998 109.332 87.1998 106.632C89.1332 104.499 90.9665 102.232 92.6998 99.8324C93.4332 98.8324 94.1333 97.8324 94.7999 96.8324C95.7333 95.3658 96.6 93.8991 97.4 92.4325C96.8 91.9658 96.1666 91.4991 95.4999 91.0324C94.6999 90.6324 95.5999 89.5324 96.2999 90.0324C96.8999 90.4324 97.5 90.8658 98.1 91.3324C98.6 91.0324 99.4 91.4324 99.1 92.1324C103.1 95.4324 106.2 99.8324 108.2 104.632C110.7 110.532 111.5 117.132 110.5 123.432C109.9 126.632 108.9 129.832 107.3 132.632C107.167 132.899 107.033 133.166 106.9 133.432C105.2 136.532 103.1 139.532 101.7 142.932C101 144.832 100.7 146.632 100.6 148.632C100.5 150.632 100.5 152.632 99.9 154.532C99.3 156.432 98 157.932 96.4 159.032C95 160.132 93.3999 161.032 91.7999 161.932C88.7999 163.432 85.6999 164.632 82.4999 165.432C78.8999 166.332 75.1999 166.832 71.4999 166.832C64.4999 166.932 57.4 165.532 51.1 162.432C49.5 161.699 47.9666 160.866 46.4999 159.932C45.7666 159.466 45.0333 158.966 44.2999 158.432C43.9666 158.166 43.6333 157.899 43.2999 157.632C43.0999 157.532 42.8999 157.432 42.7999 157.232C42.5999 156.932 42.6 156.632 42.6 156.332C42.1 152.332 43.4 148.232 45.4 144.832Z" fill="#FFBB4D"/>
<path d="M27.6001 97.1324C29.1001 95.7324 30.6001 94.3325 32.1001 93.0325C37.3001 88.5325 41.9 84.4325 43.2 82.9325C45.0666 80.7992 46.1667 76.9991 46.5 71.5325L54.2 74.7325C59.1333 72.8658 64.4666 71.2658 70.2 69.9325C72.9 72.7325 76.2999 77.1325 77.7 82.7325C77.7666 83.1991 77.8667 83.6658 78 84.1324C78.3 86.2324 78.5001 88.4324 78.4001 90.6324C77.9001 99.2324 72.7001 107.232 58.4001 107.832C55.6001 107.899 52.9335 107.866 50.4001 107.732C46.3001 107.432 42.5 106.832 39.2 106.032C31.6 104.332 26.3 101.732 24 100.432C25.1333 99.3658 26.3334 98.2658 27.6001 97.1324Z" fill="#FFA895"/>
<path d="M32.1001 93.0325C35.9001 95.0325 39.4 97.3325 42.7 100.032C45.5 102.332 48.1001 104.932 50.4001 107.732C52.3335 109.932 54.0668 112.266 55.6001 114.732C57.2668 117.266 58.7001 119.932 59.9001 122.732C64.0001 120.232 67.9 117.632 71.5 114.632C75.0333 111.699 78.2666 108.499 81.2 105.032C82.6666 103.366 84.0334 101.632 85.3 99.8325C83.3 96.5325 81.0001 93.4324 78.4001 90.6324C76.4001 88.4991 74.3001 86.4991 72.1001 84.6324C71.8334 84.4324 71.5667 84.2325 71.3 84.0325C70.9667 83.6991 70.6 83.3991 70.2 83.1324C71 82.5324 71.7335 81.8325 72.4001 81.0325C72.8668 80.4325 73.2668 79.7991 73.6001 79.1324C73.9334 79.4658 74.2999 79.7658 74.7 80.0325C75.7 80.8991 76.7 81.7991 77.7 82.7325C78.1666 83.1991 78.6666 83.6658 79.2 84.1324C82.7333 87.5991 86.0666 91.2991 89.2 95.2325C90.4 96.7658 91.5666 98.2991 92.7 99.8325C94.5 102.366 96.1666 104.932 97.7 107.532C97.9666 108.066 98.2668 108.599 98.6001 109.132C98.8001 109.432 98.8001 109.732 98.6001 110.032C102 117.532 105.3 125.232 106.9 133.432C106.3 134.499 105.7 135.532 105.1 136.532C104.767 137.066 104.467 137.599 104.2 138.132C103.3 140.132 101.9 142.032 101.3 144.232C100.8 146.932 100.7 149.732 100.9 152.432C100.9 153.366 100.933 154.299 101 155.232C101.133 155.966 101.233 156.766 101.3 157.632C101.433 158.432 101.5 159.266 101.5 160.132C101.5 160.732 101.6 161.432 101.6 162.032C101.6 162.732 101.6 163.332 101.5 164.032C101.6 165.232 100.5 166.632 99.4001 166.632C93.3001 167.232 83.4 170.232 80 163.332C79.7333 162.666 79.4666 161.932 79.2 161.132C78.2999 158.032 77.2999 154.332 74.7 152.132C73.9666 151.466 73.2333 150.766 72.5 150.032C70.9 148.632 69.4001 147.232 67.6001 146.132C66.0001 145.132 64.3 144.432 62.5 144.132C62.4 144.432 62.2001 144.532 61.9001 144.632C61.7001 144.632 61.5001 144.732 60.9001 144.832C60.5668 144.899 60.2335 144.999 59.9001 145.132C59.7001 145.232 59.6 145.232 59.2 145.132C55.3 146.832 51.6 149.232 48.5 152.232C48.2 152.432 47.9 152.332 47.5 152.332C46.9 152.732 46.3 152.132 46.5 151.532C46.5667 151.332 46.6333 151.132 46.7 150.932C46.7 150.199 46.7 149.466 46.7 148.732C46.5 147.932 46.4 147.032 46.3 145.932C46.3 145.032 46.2 144.132 46.3 143.032C45.9 142.132 46.3001 141.132 45.9001 140.132C45.7001 139.732 45.7001 139.332 45.9001 138.932C46.1001 138.632 45.6 138.632 45.7 138.332C46.1 137.732 46.4667 137.132 46.8 136.532C47.4667 135.399 48.1668 134.266 48.9001 133.132C50.3668 130.866 51.9 128.666 53.5 126.532C53.3 125.732 52.9001 125.032 52.6001 124.432C51.7334 122.632 50.8 120.899 49.8 119.232C46.8 114.432 43.3 109.932 39.2 106.032C37.5333 104.432 35.7668 102.899 33.9001 101.432C31.9001 99.8325 29.8001 98.3991 27.6001 97.1324C29.1001 95.7324 30.6001 94.3325 32.1001 93.0325Z" fill="#F66957"/>
<path d="M79.1001 132.732C81.4001 129.432 84.6001 115.632 86.1001 112.132C87.5001 108.632 97.2 106.232 104.7 112.332C104.833 112.466 104.967 112.599 105.1 112.732C108.2 115.432 111.1 118.332 113.4 120.832L108.8 121.432C103.933 118.766 102.7 118.866 105.1 121.732C108.7 126.132 101.1 145.032 99.1001 148.032C98.0001 149.532 89.4 159.132 79.3 169.332L61.1001 144.932C71.5668 138.932 77.5668 134.866 79.1001 132.732Z" fill="#FFA895"/>
<path d="M42.1001 71.8324C42.4001 71.5324 42.7001 71.4324 43.1001 71.6324C44.3668 72.4324 45.5667 73.2991 46.7 74.2324C47 74.5324 47.1001 74.9324 46.8001 75.2324C46.6001 75.5324 46.2002 75.6324 45.9002 75.3324C44.7669 74.3324 43.5333 73.4657 42.2 72.7324C41.9 72.5324 41.9001 72.0324 42.1001 71.8324Z" fill="#F76D6D"/>
<path d="M85.0001 75.3325C85.8001 74.3325 87.2003 73.8325 88.4003 74.0325C89.9336 74.2325 91.2335 74.8325 92.3002 75.8325C93.4002 76.9325 94.5001 78.7325 96.0001 79.3325C97.2001 79.8325 98.6002 79.6325 99.3002 78.5325C99.3668 78.3992 99.5001 78.2992 99.7001 78.2325C100.6 77.0325 101.2 75.4325 101.7 74.0325C101.9 73.4325 102.134 72.8325 102.4 72.2325C103.467 69.0992 104.433 65.9658 105.3 62.8325C105.8 61.1325 106.1 59.5325 107.1 58.0325C107.9 56.8325 109.1 55.9325 110.6 55.8325C112 55.7325 113.4 56.3325 114 57.6325C114.7 59.3325 113.9 61.1325 113.4 62.7325C112.4 65.8658 111.367 68.9991 110.3 72.1325C114.5 72.9325 118.7 74.0325 122.1 76.8325C123.7 78.1325 125.1 79.8325 125.9 81.7325C126.3 82.7325 126.567 83.7325 126.7 84.7325C126.8 86.0325 126.7 87.4325 126.4 88.7325C125.8 90.6325 124.9 92.3325 124.1 94.1325C124.7 94.7325 128.534 96.1992 135.6 98.5325C138.734 102.999 138.033 108.966 133.5 116.433C129.7 122.833 122.9 123.533 122.2 123.533C120.7 122.732 119.4 122.033 118.4 121.433C117.667 120.833 116.967 120.199 116.3 119.533C104.4 109.033 96.8003 103.033 92.4003 87.4325C91.4003 83.7325 88.6002 81.3325 88.6002 81.2325C87.7002 80.2325 86.2003 79.2325 85.4003 78.1325C84.6003 77.0325 84.0001 76.4325 85.0001 75.3325Z" fill="#FFA895"/>
<path d="M46.5001 139.433C47.2001 144.233 47.2001 148.332 46.7001 153.132C46.6001 154.032 45.3003 153.833 45.4003 152.933C45.9003 148.333 45.8001 144.232 45.2001 139.532C45.1001 138.732 46.4001 138.533 46.5001 139.433Z" fill="#F66957"/>
<path d="M54.1002 65.3325C55.6002 64.3325 57.4001 63.8325 59.2001 63.5325C60.0001 63.3325 64.5002 62.9325 62.6002 65.1325C62.0002 65.8325 60.8002 65.5325 60.1002 65.6325C58.2002 65.6325 56.3001 66.0325 54.5001 66.5325C54.2001 66.6325 53.8001 66.4325 53.7001 66.1325C53.6001 65.8325 53.8002 65.5325 54.1002 65.3325Z" fill="#36174D"/>
<path d="M67.3001 71.4326C67.2001 70.4326 67.2001 69.4326 67.3001 68.4326C67.4001 67.3326 67.5 66.2326 68.2 65.4326C68.7 64.7326 69.8001 65.5326 69.3001 66.2326C68.6001 67.0326 68.6001 68.1325 68.6001 69.1325C68.6001 70.1325 68.5002 71.1325 68.9002 72.1325C69.0335 72.5325 69.2668 72.9325 69.6001 73.3325C70.0001 73.7325 70.4 74.0325 70.5 74.6325C70.7 75.6325 70.1001 76.6326 69.3001 77.2326C68.6001 77.7326 67.7002 76.7326 68.4002 76.2326C68.8002 75.9326 69.1 75.6325 69.2 75.1325C69.3 74.7325 68.9001 74.4325 68.6001 74.1325C67.9001 73.4325 67.5001 72.4326 67.3001 71.4326Z" fill="#F76D6D"/>
<path d="M69.3001 61.5325C70.5001 60.6325 72.0002 60.1325 73.6002 60.2325C74.9002 60.1325 75 61.5324 74.2 61.6324C73.1 61.7324 72.0002 62.1325 71.1002 62.7325C70.6335 63.0658 70.2336 63.4324 69.9002 63.8324C69.5002 64.3324 69.2 64.9325 68.7 65.4325C68.4 65.7325 68 65.8325 67.7 65.4325C66.6 64.1325 68.2001 62.3325 69.3001 61.5325Z" fill="#36174D"/>
<path d="M60.4001 76.7324C60.7001 76.5324 61.1 76.5324 61.3 76.8324C61.4333 76.9657 61.5334 77.0991 61.6 77.2324C62 77.6324 62.2 77.7324 62.3 77.8324C63.3 78.1324 63.4 78.2324 63.6 78.2324C64.8 78.0324 65.2 78.1324 65.3 78.5324C65.4 78.8324 65.3001 79.2324 64.9001 79.3324C63.2001 79.8324 61.1999 79.2324 60.1999 77.6324C60.0999 77.3324 60.1001 76.9324 60.4001 76.7324Z" fill="#F76D6D"/>
<path d="M107.3 79.2324C107.7 78.4324 108.9 78.9324 108.6 79.7324C107.9 81.1324 107.1 82.8324 107.3 84.4324C107.5 85.9324 108.7 86.9324 110 87.5324C111.6 88.3324 113.2 89.0324 114.8 89.6324C116.5 90.2324 118.2 90.7324 120 90.8324C122 91.0324 123.9 90.5324 125.5 89.3324C126.2 88.8324 127 89.9324 126.3 90.4324C123 93.0324 118.6 92.3324 114.9 91.0324C113.1 90.4324 111.3 89.6324 109.6 88.8324C108 88.0324 106.6 87.0324 106.1 85.2324C105.6 83.2324 106.4 81.0324 107.3 79.2324Z" fill="#F76D6D"/>
<path d="M117.5 90.3324C119.3 88.8324 120.4 86.7325 121 84.4325C121.333 83.2325 121.567 82.0324 121.7 80.8324C121.767 80.1658 121.8 79.5325 121.8 78.9325C121.8 78.5991 121.8 78.2991 121.8 78.0325C121.6 77.6325 121.4 77.4325 121.3 77.2325C121.2 76.9325 121.4 76.4324 121.7 76.3324C123.4 75.9324 123.2 78.3325 123.1 79.4325C123.033 80.9658 122.833 82.4658 122.5 83.9325C122.1 85.4325 121.7 86.9325 121 88.2325C120.267 89.4325 119.367 90.4991 118.3 91.4325C117.6 91.9325 116.8 90.9324 117.5 90.3324Z" fill="#F76D6D"/>
<path d="M111.6 87.8325C112.4 87.2325 113 86.3325 113.4 85.3325C113.9 84.2325 114.3 83.0325 114.6 81.8325C115.4 79.3325 115.8 76.7324 115.4 74.1324C115.3 73.2324 116.6 73.1325 116.8 73.9325C117.2 76.8325 116.7 79.6325 115.9 82.3325C115.5 83.6325 115.1 84.8324 114.5 86.1324C114 87.1324 113.4 88.2325 112.4 88.9325C111.6 89.3325 110.8 88.3325 111.6 87.8325Z" fill="#F76D6D"/>
<path d="M83.6999 143.133L91.6 100.733C92.1 98.0325 94.7001 95.8325 97.4001 95.8325H117.8C120.5 95.8325 122.3 98.0325 121.8 100.733L113.9 143.133C113.3 145.833 110.7 147.933 108 147.933H87.6C84.9 147.933 83.1999 145.833 83.6999 143.133Z" fill="#19C5FF"/>
<path d="M109.7 110.732L111.2 103.132C111.5 101.432 113.1 100.032 114.8 100.032H115.6C117.3 100.032 118.4 101.432 118.1 103.132L116.6 110.732C116.3 112.432 114.7 113.832 113 113.832H112.2C110.5 113.832 109.4 112.432 109.7 110.732Z" fill="white"/>
<path d="M114.5 106.232C115.825 106.232 116.9 105.203 116.9 103.932C116.9 102.662 115.825 101.632 114.5 101.632C113.175 101.632 112.1 102.662 112.1 103.932C112.1 105.203 113.175 106.232 114.5 106.232Z" fill="#36174D"/>
<path d="M113.3 112.232C114.626 112.232 115.7 111.203 115.7 109.932C115.7 108.662 114.626 107.632 113.3 107.632C111.975 107.632 110.9 108.662 110.9 109.932C110.9 111.203 111.975 112.232 113.3 112.232Z" fill="#36174D"/>
<path d="M84.6001 116.832C85.4001 115.432 86.6 114.432 88 113.932C88.7 113.632 89.4999 113.532 90.1999 113.632C90.3999 113.532 90.6 113.432 90.8 113.532L102.5 119.132C104.2 119.932 106 120.632 107.3 122.032C108.5 123.232 109.2 125.232 108.5 126.832C108.1 127.832 107.2 128.532 106.2 128.632C106.5 129.332 106.6 130.132 106.4 130.932C106 132.332 104.8 133.332 103.4 133.432C101.8 133.432 100.3 132.532 98.9001 131.932C97.3668 131.199 95.8668 130.466 94.4001 129.732C92.9334 128.932 91.4666 128.099 90 127.232C88.7 126.432 87.2999 125.732 86.1999 124.632C85.0999 123.732 84.3 122.432 84 120.932C83.7 119.532 83.9001 118.032 84.6001 116.832Z" fill="#FFA895"/>
<path d="M83.9002 126.032C84.1002 125.132 84.6002 124.332 85.4002 123.932C85.6002 123.799 85.8335 123.699 86.1002 123.632C85.9002 123.132 86.5002 122.532 86.9002 122.932C89.9002 125.332 92.8668 127.732 95.8001 130.132C97.1001 131.232 98.6002 132.232 99.6002 133.632C100.5 134.832 101 136.432 100.5 137.832C99.9001 139.432 98.1002 140.032 96.6002 139.732C95.0002 139.432 93.6002 138.332 92.4002 137.332C91.0002 136.232 89.5002 135.132 88.1002 133.932C87.0002 133.032 85.9002 132.032 85.1002 130.832C84.1002 129.432 83.5002 127.732 83.9002 126.032Z" fill="#FFA895"/>
<path d="M80.5 135.332C80.7 134.199 81.0001 133.099 81.4001 132.032C81.7001 131.232 82.0001 130.332 82.6001 129.632C83.3001 128.832 84.3001 128.332 85.4001 128.432C86.4001 128.532 87.3 129.032 88 129.732C88.2667 129.999 88.5 130.266 88.7 130.532C88.9 130.532 89.1 130.632 89.2 130.932C89.4 131.532 89.6 132.166 89.8 132.832C90.1 133.832 90.5 134.832 91 135.732C91.2 136.032 91.2 136.432 90.8 136.732C90.8667 136.999 90.9333 137.299 91 137.632C91.5 139.832 92.1 142.132 92 144.432C92 146.332 91.4 148.232 90 149.632C88.8 150.932 87.0001 151.532 85.1001 151.132C83.4001 150.632 81.9 149.432 81 147.832C80 146.032 79.7 143.932 79.7 141.832C79.8 139.632 80 137.432 80.5 135.332Z" fill="#FFA895"/>
<path d="M86.1002 111.932C86.3002 111.532 86.6001 111.199 87.0001 110.932C89.3001 109.232 92.6002 109.132 95.3002 108.832L102.9 108.032C104.7 107.832 106.9 107.432 108.6 108.332C109.4 108.732 110 109.532 110.1 110.432C110.2 111.432 109.9 112.332 109.4 113.132C108.1 114.832 105.8 115.232 103.8 115.532C101.333 115.932 98.8669 116.232 96.4003 116.432C95.1336 116.566 93.9001 116.666 92.7001 116.732C91.6001 116.732 90.6002 116.832 89.6002 116.732C88.8002 116.632 88.1003 116.432 87.4003 116.132C85.6003 114.932 85.3002 113.232 86.1002 111.932Z" fill="#FFA895"/>
<path d="M84.3001 130.632C84.5001 130.332 85.0001 130.232 85.3001 130.532C87.3001 132.399 89.3336 134.266 91.4002 136.132C91.6002 136.332 91.7001 136.732 91.5001 137.032C91.3001 137.332 90.8001 137.432 90.5001 137.132C88.5001 135.266 86.4669 133.399 84.4002 131.532C84.2002 131.332 84.1001 130.932 84.3001 130.632Z" fill="#F76D6D"/>
<path d="M90.1999 118.733C90.4999 118.433 90.8999 118.433 91.1999 118.633C96.3333 121.899 101.467 125.133 106.6 128.333C106.9 128.533 106.9 129.033 106.7 129.233C106.5 129.633 106.1 129.633 105.8 129.433C100.667 126.166 95.5335 122.933 90.4001 119.733C90.1001 119.533 89.9999 119.033 90.1999 118.733Z" fill="#F76D6D"/>
<path d="M88.6001 124.433C91.6001 126.499 94.6001 128.599 97.6001 130.732C98.3001 131.132 97.5 132.232 96.8 131.732C93.8 129.666 90.8 127.599 87.8 125.532C87.1 125.032 87.9001 123.933 88.6001 124.433Z" fill="#F76D6D"/>
<path d="M92.3 113.132C94.8334 114.399 97.3334 115.666 99.8 116.932C101.067 117.532 102.333 118.166 103.6 118.832C104.7 119.332 105.9 119.832 106.9 120.532C107.9 121.132 108.7 122.032 109 123.232C109.1 124.032 107.8 124.232 107.6 123.332C107.4 122.232 106.2 121.532 105.3 121.132C103.833 120.399 102.367 119.666 100.9 118.932C97.8335 117.399 94.8 115.899 91.8 114.432C91 114.032 91.5 112.732 92.3 113.132Z" fill="#F76D6D"/>
<path d="M65.1001 70.4324C65.5001 70.0324 65.9667 69.7324 66.5 69.5324C67.0333 69.3324 67.6 69.2324 68.2 69.2324C68.5 69.3324 68.8 69.7324 68.7 70.0324C68.7 70.4324 68.4 70.6324 68 70.6324C66 71.4324 65.9 71.5324 65.7 71.5324C65.6 71.5324 65.4 71.5324 65.2 71.4324C65.1 71.2324 65 71.1324 65 70.9324C65 70.7324 65.0001 70.5324 65.1001 70.4324Z" fill="white"/>
<path d="M124.1 94.0326C124.2 93.7326 124.6 93.6326 125 93.7326C130.133 95.3326 135.233 97.1992 140.3 99.3325C141.7 99.9325 143.1 100.566 144.5 101.233C145.3 101.633 144.8 102.833 144 102.433C139.067 100.166 134 98.1659 128.8 96.4326C127.333 95.8992 125.867 95.3992 124.4 94.9326C124.1 94.8326 123.9 94.3326 124.1 94.0326Z" fill="white"/>
<path d="M49.4 82.0325C49.6 81.7325 49.9999 81.5324 50.2999 81.6324C53.9999 83.6324 57.9999 85.3325 62.2999 85.3325C65.0999 85.4325 67.8999 84.7324 70.1999 83.1324C70.9998 82.5324 71.7334 81.8325 72.4 81.0325C72.8667 80.4325 73.2667 79.7991 73.6 79.1324C74.1333 78.0658 74.4332 76.8991 74.4999 75.6324C74.4999 75.2324 74.8999 75.0325 75.1999 75.0325C75.5998 75.1325 75.7999 75.4325 75.7999 75.8325C75.7999 77.3325 75.2999 78.7325 74.6999 80.0325C73.8999 81.6325 72.6999 82.9325 71.2999 84.0325C70.7666 84.4325 70.2 84.7658 69.6 85.0325C67.7 86.0325 65.5999 86.5324 63.4999 86.6324C63.0999 88.3658 62.4998 89.9991 61.6998 91.5325C61.4998 91.8325 61.1999 92.0325 60.7999 91.8325C60.4999 91.7325 60.2999 91.3325 60.4999 90.9325C61.1666 89.5992 61.7332 88.1992 62.1998 86.7325C60.3998 86.6325 58.6999 86.3325 56.9999 85.9325C54.4999 85.2325 52.0999 84.1325 49.7999 82.9325C49.4999 82.7325 49.3 82.4325 49.4 82.0325Z" fill="#F76D6D"/>
<path d="M75.0001 62.0325C78.5001 62.5325 80.9001 65.6325 80.5001 69.1325C80.1001 72.6325 76.9002 75.0325 73.4002 74.6325C70.0002 74.2325 67.5002 71.0325 67.9002 67.5325C68.4002 64.1325 71.6001 61.6325 75.0001 62.0325Z" fill="#19C5FF"/>
<path fill-rule="evenodd" clip-rule="evenodd" d="M73.4001 75.1324C71.5001 74.9324 69.9 74.0325 68.8 72.5325C67.7 71.1325 67.2001 69.3325 67.4001 67.4325C67.9001 63.7325 71.3 61.0325 75.1 61.5325C76.9 61.7325 78.4999 62.6324 79.6999 64.1324C80.7999 65.6324 81.2999 67.4325 80.9999 69.2325C80.7999 71.0325 79.9001 72.6325 78.4001 73.8325C77.2001 74.7325 75.7999 75.2325 74.1999 75.2325C73.9332 75.2325 73.6668 75.1991 73.4001 75.1324ZM68.4999 67.6324C68.0999 70.7324 70.2999 73.6325 73.4999 74.0325C74.9999 74.2325 76.5 73.8325 77.8 72.9325C79 71.9325 79.8001 70.6325 79.9001 69.0325C80.1001 67.5325 79.7 66.0325 78.8 64.8325C77.8 63.6325 76.5001 62.8324 74.9001 62.6324C74.7001 62.5658 74.4666 62.5325 74.1999 62.5325C71.3999 62.5325 68.8999 64.7324 68.4999 67.6324Z" fill="white"/>
<path d="M60.2 65.6324C63.7 66.0324 66.1 69.2324 65.7 72.6324C65.2 76.1324 62.1001 78.6324 58.6001 78.1324C55.1001 77.7324 52.7001 74.5324 53.1001 71.0324C53.6001 67.6324 56.7 65.1324 60.2 65.6324Z" fill="#19C5FF"/>
<path fill-rule="evenodd" clip-rule="evenodd" d="M58.5001 78.7325C54.8001 78.2325 52.1002 74.7325 52.6002 71.0325C53.0002 67.2325 56.5002 64.5325 60.3002 65.0325C64.0002 65.5325 66.7001 68.9325 66.2001 72.7325C65.8001 76.2325 62.8003 78.7325 59.4003 78.7325C59.1336 78.7325 58.8335 78.7325 58.5001 78.7325ZM53.7001 71.1325C53.3001 74.3325 55.5001 77.2325 58.7001 77.6325C61.8001 78.0325 64.7002 75.7325 65.1002 72.6325C65.5002 69.4325 63.3002 66.5325 60.1002 66.1325C59.8335 66.1325 59.6003 66.1325 59.4003 66.1325C56.5003 66.1325 54.0001 68.2325 53.7001 71.1325Z" fill="white"/>
<path d="M58.1001 72.1324C58.2001 71.8324 58.3001 71.5324 58.4001 71.3324C58.5335 71.1991 58.6333 71.0658 58.7 70.9324C59.4 70.6324 59.6 70.7324 59.7 70.8324C60.1 71.6324 60.2001 71.9324 60.1001 72.3324C60.1001 72.5324 60.0335 72.7324 59.9001 72.9324C58.4001 73.1324 58.3 73.0324 58.2 72.8324C58.1 72.4324 58.1001 72.2324 58.1001 72.1324Z" fill="#36174D"/>
<path d="M68.6001 69.0325C68.7001 68.5325 68.8 68.3325 69 68.1325C69.2 67.8658 69.4333 67.7658 69.7 67.8325C69.9 67.8325 70.1 67.9325 70.2 68.2325C70.2666 68.3659 70.3 68.4992 70.3 68.6325C69.7 70.2325 69.5 70.3325 69.2 70.2325C69 70.2325 68.8 70.0325 68.7 69.8325C68.6333 69.6325 68.6001 69.3992 68.6001 69.1325C68.6001 69.0325 68.6001 69.0325 68.6001 69.0325Z" fill="#36174D"/>
<path d="M31.7 53.6324C32.1 53.2324 32.6001 52.7325 33.1001 52.5325C32.7001 62.2325 32.8 66.9325 34 81.7325C34.2 84.4325 34.9 87.1325 35.5 89.7325C35.7 90.6325 34.3 90.7325 34.2 89.9325C32.1 80.3325 31.4 70.6325 31.3 60.8325C31.3 58.4325 31.5 56.0324 31.7 53.6324Z" fill="white"/>
<path d="M11.7 116.932C12.1 114.932 12.5001 112.832 13.4001 110.932C14.2001 109.132 15.3 107.532 16.5 106.132C17.9 104.532 19.4001 103.032 21.1001 101.332C22.7668 99.7991 24.4666 98.2658 26.2 96.7325C26.5333 96.4658 26.8666 96.1658 27.2 95.8324C29.5333 93.7658 31.9 91.7325 34.3 89.7325C34.9 89.1325 35.7001 90.2325 35.1001 90.7325C32.8334 92.6658 30.6001 94.5991 28.4001 96.5325C28.0001 96.8658 27.6334 97.1991 27.3 97.5325C25.6 99.0325 23.8001 100.632 21.9001 102.532C19.2001 105.032 16.5001 107.632 14.9001 110.932C13.9001 112.732 13.5001 114.832 13.1001 116.832C12.6334 118.899 12.3001 120.966 12.1001 123.032C11.8001 125.532 11.8001 129.032 11.6001 131.432C11.1334 130.032 10.7 128.566 10.3 127.032C10.6 123.632 11 120.332 11.7 116.932Z" fill="white"/>
<path d="M91.8001 146.932C94.3001 147.032 96.8001 146.832 99.3001 146.932C101.1 147.032 103 147.032 104.8 147.032C106.4 147.032 108.2 147.132 109.7 146.632C110.6 146.332 111.2 145.732 111.7 144.932C112.2 144.132 112.5 143.232 112.8 142.332C113.1 141.132 113.4 139.932 113.6 138.732C115.6 129.032 117.6 119.232 119.5 109.532C120.1 106.832 120.7 104.132 121 101.432C121.1 100.332 121.1 99.0325 120.5 98.0325C120 97.2325 119.2 96.6324 118.2 96.8324C117.4 96.9324 117.2 95.6325 118 95.4325C120.3 95.0325 122 97.1324 122.3 99.1324C122.5 100.332 122.3 101.532 122.1 102.732C121.9 103.999 121.7 105.299 121.5 106.632C120.5 111.732 119.4 116.832 118.4 122.032C117.334 127.166 116.267 132.299 115.2 137.432C115 138.699 114.734 139.932 114.4 141.132C114.2 142.232 113.9 143.432 113.5 144.432C113.1 145.432 112.5 146.332 111.7 146.932C110.9 147.632 109.9 148.032 108.9 148.232C107.8 148.432 106.7 148.332 105.6 148.232C100.9 148.132 96.3001 148.532 91.6001 148.232C90.7001 148.232 90.9001 146.932 91.8001 146.932Z" fill="white"/>
<path d="M87.1 149.132C88.1 148.832 89.1001 148.332 89.9001 147.632C90.7001 146.733 90.9999 145.733 90.9999 144.533C90.8999 142.033 90.4 139.433 89.8 137.033C89.7 136.633 89.7999 136.233 90.1999 136.133C90.4999 136.033 90.8999 136.133 90.9999 136.533C91.3999 137.933 91.7001 139.366 91.9001 140.833C92.2001 142.233 92.3 143.633 92.3 145.033C92.2 146.333 91.8 147.533 90.8 148.533C89.9 149.433 88.8 150.033 87.6 150.333C87.2 150.433 86.7999 150.333 86.6999 150.033C86.5999 149.633 86.7 149.233 87.1 149.132Z" fill="#F76D6D"/>
<path d="M97.9002 78.6325C102 73.0325 102.6 65.9325 105.3 59.6325C105.9 58.1325 106.8 56.5325 108.2 55.6325C109.5 54.8325 111.3 54.5325 112.7 55.4325C114.1 56.2325 114.7 58.0325 114.6 59.6325C114.6 60.5325 114.3 61.4325 114 62.4325C113.733 63.3658 113.433 64.2992 113.1 65.2325C111.8 69.4325 110.2 73.5325 108.4 77.5325C108.1 78.3325 106.8 77.8325 107.2 77.0325C108.667 73.6325 110 70.1992 111.2 66.7325C111.8 65.0325 112.4 63.2325 112.9 61.4325C113.3 60.0325 113.6 58.2325 112.6 57.0325C111.7 55.9325 110.1 56.0325 109 56.7325C107.7 57.5325 107 59.0325 106.4 60.4325C105.2 63.4325 104.4 66.5325 103.4 69.6325C102.4 73.0325 101.1 76.5325 98.9002 79.4325C98.4002 80.1325 97.4002 79.3325 97.9002 78.6325Z" fill="white"/>
<path d="M121.6 48.3324C122.2 48.1324 122.4 48.0324 122.6 48.0324C123.2 47.6324 123.4 47.5324 123.5 47.4324C123.7 47.2991 123.867 47.1657 124 47.0324C124.6 46.4324 124.8 46.1324 125 45.8324C125.2 45.5324 125.7 45.4324 126 45.6324C126.3 45.9324 126.3 46.3324 126.1 46.6324C125.1 48.2324 123.5 49.2324 121.7 49.6324C121.4 49.7324 121 49.4324 121 49.0324C120.9 48.7324 121.2 48.4324 121.6 48.3324Z" fill="white"/>
<path d="M117.1 45.7324C117.234 44.1991 117.367 42.6657 117.5 41.1324C117.6 40.8324 117.9 40.5324 118.3 40.6324C118.7 40.6324 118.9 41.0324 118.9 41.3324C118.7 42.8658 118.534 44.3991 118.4 45.9325C118.4 46.3325 118 46.5324 117.6 46.5324C117.3 46.4324 117 46.1324 117.1 45.7324Z" fill="white"/>
<path d="M110.1 40.9325C110.5 40.8325 110.9 41.0325 111 41.3325C111.6 42.9325 112.3 44.3325 113.3 45.6325C113.5 45.9325 113.5 46.4325 113.2 46.6325C112.9 46.8325 112.4 46.8325 112.2 46.5325C111.2 45.0658 110.4 43.4991 109.8 41.8325C109.6 41.5325 109.8 41.1325 110.1 40.9325Z" fill="white"/>
<path d="M45.4001 132.632C45.4001 130.766 45.4333 128.932 45.5 127.132C45.5 126.732 45.9 126.432 46.3 126.532C46.7 126.532 46.8 126.932 46.8 127.332L46.4001 146.832C46.4001 148.632 46.3667 150.466 46.3 152.332C46.3 152.732 45.9001 152.932 45.6001 152.932C45.2001 152.832 45 152.532 45 152.132C45.1333 145.599 45.2668 139.099 45.4001 132.632Z" fill="white"/>
<path d="M35.7 160.433C41.6 155.233 48 150.632 54.7 146.632C56.6333 145.566 58.6001 144.499 60.6001 143.433C60.9001 143.333 61.3 143.532 61.5 143.832C61.6 144.232 61.4001 144.532 61.1001 144.732C54.2001 148.232 47.7001 152.432 41.6001 157.232C39.8668 158.632 38.2001 160.066 36.6001 161.532C35.9001 162.032 35.1 161.033 35.7 160.433Z" fill="#F66957"/>
</svg>
